<mxfile host="65bd71144e">
    <diagram id="dsYNIA9IyFrvdduIpTXd" name="login">
        <mxGraphModel dx="1549" dy="776" grid="1" gridSize="10" guides="1" tooltips="1" connect="1" arrows="1" fold="1" page="1" pageScale="1" pageWidth="850" pageHeight="1100" math="0" shadow="0">
            <root>
                <mxCell id="0"/>
                <mxCell id="1" parent="0"/>
                <mxCell id="EqU8juR823zRozQxgaNp-1" value="&lt;font face=&quot;Times New Roman&quot;&gt;Melakukan login&lt;/font&gt;" style="swimlane;childLayout=stackLayout;resizeParent=1;resizeParentMax=0;startSize=20;html=1;" parent="1" vertex="1">
                    <mxGeometry x="170.00000000000045" y="190" width="420" height="270" as="geometry"/>
                </mxCell>
                <mxCell id="EqU8juR823zRozQxgaNp-2" value="&lt;font face=&quot;Times New Roman&quot;&gt;Pengguna&lt;/font&gt;" style="swimlane;startSize=20;html=1;" parent="EqU8juR823zRozQxgaNp-1" vertex="1">
                    <mxGeometry y="20" width="120" height="250" as="geometry"/>
                </mxCell>
                <mxCell id="EqU8juR823zRozQxgaNp-3" value="" style="edgeStyle=none;html=1;" parent="EqU8juR823zRozQxgaNp-2" source="EqU8juR823zRozQxgaNp-4" target="EqU8juR823zRozQxgaNp-5" edge="1">
                    <mxGeometry relative="1" as="geometry"/>
                </mxCell>
                <mxCell id="EqU8juR823zRozQxgaNp-4" value="" style="shape=ellipse;html=1;fillColor=strokeColor;fontSize=18;fontColor=#ffffff;" parent="EqU8juR823zRozQxgaNp-2" vertex="1">
                    <mxGeometry x="50" y="24" width="20" height="20" as="geometry"/>
                </mxCell>
                <mxCell id="EqU8juR823zRozQxgaNp-5" value="&lt;p&gt;&lt;font face=&quot;Times New Roman&quot; style=&quot;font-size: 10px;&quot;&gt;Pengguna membuka aplikasi&lt;/font&gt;&lt;/p&gt;" style="rounded=1;whiteSpace=wrap;html=1;" parent="EqU8juR823zRozQxgaNp-2" vertex="1">
                    <mxGeometry x="19.999999999999545" y="63" width="80" height="40" as="geometry"/>
                </mxCell>
                <mxCell id="EqU8juR823zRozQxgaNp-6" value="&lt;font face=&quot;Times New Roman&quot;&gt;&lt;span style=&quot;font-size: 10px;&quot;&gt;Masukkan &lt;i&gt;email &lt;/i&gt;dan &lt;i&gt;password&lt;/i&gt;&lt;/span&gt;&lt;/font&gt;" style="rounded=1;whiteSpace=wrap;html=1;" parent="EqU8juR823zRozQxgaNp-2" vertex="1">
                    <mxGeometry x="19.999999999999545" y="138" width="80" height="40" as="geometry"/>
                </mxCell>
                <mxCell id="EqU8juR823zRozQxgaNp-7" value="&lt;font face=&quot;Times New Roman&quot;&gt;Sistem&lt;/font&gt;" style="swimlane;startSize=20;html=1;" parent="EqU8juR823zRozQxgaNp-1" vertex="1">
                    <mxGeometry x="120" y="20" width="300" height="250" as="geometry"/>
                </mxCell>
                <mxCell id="EqU8juR823zRozQxgaNp-8" value="&lt;span style=&quot;font-family: &amp;quot;Times New Roman&amp;quot;; font-size: 10px;&quot;&gt;Menampilkan halaman &lt;i&gt;login&lt;/i&gt;&lt;/span&gt;" style="rounded=1;whiteSpace=wrap;html=1;" parent="EqU8juR823zRozQxgaNp-7" vertex="1">
                    <mxGeometry x="19.999999999999545" y="63" width="80" height="40" as="geometry"/>
                </mxCell>
                <mxCell id="EqU8juR823zRozQxgaNp-9" value="" style="edgeStyle=none;html=1;" parent="EqU8juR823zRozQxgaNp-7" source="EqU8juR823zRozQxgaNp-10" target="EqU8juR823zRozQxgaNp-16" edge="1">
                    <mxGeometry relative="1" as="geometry"/>
                </mxCell>
                <mxCell id="EqU8juR823zRozQxgaNp-10" value="&lt;span style=&quot;font-family: &amp;quot;Times New Roman&amp;quot;; font-size: 10px;&quot;&gt;Validasi &lt;i&gt;email &lt;/i&gt;dan &lt;i&gt;password&lt;/i&gt;&lt;/span&gt;" style="rounded=1;whiteSpace=wrap;html=1;" parent="EqU8juR823zRozQxgaNp-7" vertex="1">
                    <mxGeometry x="19.999999999999545" y="138" width="80" height="40" as="geometry"/>
                </mxCell>
                <mxCell id="EqU8juR823zRozQxgaNp-11" value="" style="edgeStyle=none;html=1;fontSize=9;" parent="EqU8juR823zRozQxgaNp-7" source="EqU8juR823zRozQxgaNp-12" target="EqU8juR823zRozQxgaNp-13" edge="1">
                    <mxGeometry relative="1" as="geometry"/>
                </mxCell>
                <mxCell id="EqU8juR823zRozQxgaNp-12" value="&lt;span style=&quot;font-family: &amp;quot;Times New Roman&amp;quot;; font-size: 10px;&quot;&gt;Menampilkan halaman &lt;i&gt;dashboard&lt;/i&gt;&lt;/span&gt;" style="rounded=1;whiteSpace=wrap;html=1;" parent="EqU8juR823zRozQxgaNp-7" vertex="1">
                    <mxGeometry x="137" y="198" width="80" height="40" as="geometry"/>
                </mxCell>
                <mxCell id="EqU8juR823zRozQxgaNp-13" value="&lt;font face=&quot;Times New Roman&quot;&gt;1&lt;/font&gt;" style="ellipse;whiteSpace=wrap;html=1;aspect=fixed;" parent="EqU8juR823zRozQxgaNp-7" vertex="1">
                    <mxGeometry x="250" y="203" width="30" height="30" as="geometry"/>
                </mxCell>
                <mxCell id="EqU8juR823zRozQxgaNp-14" value="" style="endArrow=classic;html=1;entryX=0;entryY=0.5;entryDx=0;entryDy=0;exitX=0.987;exitY=0.498;exitDx=0;exitDy=0;exitPerimeter=0;" parent="EqU8juR823zRozQxgaNp-7" source="EqU8juR823zRozQxgaNp-16" target="EqU8juR823zRozQxgaNp-12" edge="1">
                    <mxGeometry relative="1" as="geometry">
                        <mxPoint x="59.999999999999886" y="237.9999999999999" as="sourcePoint"/>
                        <mxPoint x="69.99999999999955" y="318" as="targetPoint"/>
                    </mxGeometry>
                </mxCell>
                <mxCell id="EqU8juR823zRozQxgaNp-15" value="&lt;font face=&quot;Times New Roman&quot;&gt;Ya&lt;/font&gt;" style="edgeLabel;resizable=0;html=1;align=center;verticalAlign=middle;" parent="EqU8juR823zRozQxgaNp-14" connectable="0" vertex="1">
                    <mxGeometry relative="1" as="geometry">
                        <mxPoint x="-4" y="-1" as="offset"/>
                    </mxGeometry>
                </mxCell>
                <mxCell id="EqU8juR823zRozQxgaNp-16" value="&lt;font style=&quot;font-size: 10px;&quot; face=&quot;Times New Roman&quot;&gt;Apakah &lt;br&gt;valid?&lt;/font&gt;" style="html=1;whiteSpace=wrap;aspect=fixed;shape=isoRectangle;" parent="EqU8juR823zRozQxgaNp-7" vertex="1">
                    <mxGeometry x="26.66" y="198" width="66.67" height="40" as="geometry"/>
                </mxCell>
                <mxCell id="EqU8juR823zRozQxgaNp-17" value="" style="edgeStyle=none;html=1;" parent="EqU8juR823zRozQxgaNp-1" source="EqU8juR823zRozQxgaNp-5" target="EqU8juR823zRozQxgaNp-8" edge="1">
                    <mxGeometry relative="1" as="geometry"/>
                </mxCell>
                <mxCell id="EqU8juR823zRozQxgaNp-18" value="" style="edgeStyle=none;html=1;entryX=0.5;entryY=0;entryDx=0;entryDy=0;" parent="EqU8juR823zRozQxgaNp-1" source="EqU8juR823zRozQxgaNp-8" target="EqU8juR823zRozQxgaNp-6" edge="1">
                    <mxGeometry relative="1" as="geometry">
                        <Array as="points">
                            <mxPoint x="179.99999999999955" y="130"/>
                            <mxPoint x="59.999999999999545" y="130"/>
                            <mxPoint x="59.999999999999545" y="153"/>
                        </Array>
                    </mxGeometry>
                </mxCell>
                <mxCell id="EqU8juR823zRozQxgaNp-19" value="" style="edgeStyle=none;html=1;" parent="EqU8juR823zRozQxgaNp-1" source="EqU8juR823zRozQxgaNp-6" target="EqU8juR823zRozQxgaNp-10" edge="1">
                    <mxGeometry relative="1" as="geometry"/>
                </mxCell>
                <mxCell id="EqU8juR823zRozQxgaNp-20" value="" style="endArrow=classic;html=1;entryX=0.5;entryY=1;entryDx=0;entryDy=0;exitX=0.003;exitY=0.498;exitDx=0;exitDy=0;exitPerimeter=0;" parent="EqU8juR823zRozQxgaNp-1" source="EqU8juR823zRozQxgaNp-16" target="EqU8juR823zRozQxgaNp-6" edge="1">
                    <mxGeometry relative="1" as="geometry">
                        <mxPoint x="80.00498000000056" y="228.00000000000006" as="sourcePoint"/>
                        <mxPoint x="80.41000000000003" y="278.8" as="targetPoint"/>
                        <Array as="points">
                            <mxPoint x="59.999999999999545" y="240"/>
                        </Array>
                    </mxGeometry>
                </mxCell>
                <mxCell id="EqU8juR823zRozQxgaNp-21" value="&lt;font face=&quot;Times New Roman&quot;&gt;Tidak&amp;nbsp;&lt;/font&gt;" style="edgeLabel;resizable=0;html=1;align=center;verticalAlign=middle;" parent="EqU8juR823zRozQxgaNp-20" connectable="0" vertex="1">
                    <mxGeometry relative="1" as="geometry">
                        <mxPoint x="18" y="-2" as="offset"/>
                    </mxGeometry>
                </mxCell>
            </root>
        </mxGraphModel>
    </diagram>
    <diagram id="KTY32M09ZDdNd14A0ad_" name="rekam medis">
        <mxGraphModel dx="298" dy="149" grid="1" gridSize="10" guides="1" tooltips="1" connect="1" arrows="1" fold="1" page="1" pageScale="1" pageWidth="850" pageHeight="1100" math="0" shadow="0">
            <root>
                <mxCell id="0"/>
                <mxCell id="1" parent="0"/>
                <mxCell id="2" value="Aktivitas di menu rekam medis" style="swimlane;childLayout=stackLayout;resizeParent=1;resizeParentMax=0;startSize=20;html=1;fontFamily=Times New Roman;fontSize=9;" parent="1" vertex="1">
                    <mxGeometry x="100" y="142" width="550.0045440007237" height="590" as="geometry"/>
                </mxCell>
                <mxCell id="3" value="Bidan" style="swimlane;startSize=20;html=1;fontFamily=Times New Roman;fontSize=9;" parent="2" vertex="1">
                    <mxGeometry y="20" width="125.00454400072377" height="570" as="geometry"/>
                </mxCell>
                <mxCell id="4" value="" style="edgeStyle=none;html=1;fontFamily=Times New Roman;fontSize=9;" parent="3" source="5" target="6" edge="1">
                    <mxGeometry relative="1" as="geometry"/>
                </mxCell>
                <mxCell id="5" value="&lt;font face=&quot;Times New Roman&quot;&gt;1&lt;/font&gt;" style="ellipse;whiteSpace=wrap;html=1;aspect=fixed;" parent="3" vertex="1">
                    <mxGeometry x="44.999999999999545" y="30" width="30" height="30" as="geometry"/>
                </mxCell>
                <mxCell id="6" value="Memilih menu asesment kebidanan" style="rounded=1;whiteSpace=wrap;html=1;fontFamily=Times New Roman;fontSize=10;" parent="3" vertex="1">
                    <mxGeometry x="19.999999999999545" y="77" width="80" height="40" as="geometry"/>
                </mxCell>
                <mxCell id="27" value="Memilih tombol entri" style="rounded=1;whiteSpace=wrap;html=1;fontFamily=Times New Roman;fontSize=10;" parent="3" vertex="1">
                    <mxGeometry x="37.999999999999545" y="273" width="80" height="40" as="geometry"/>
                </mxCell>
                <mxCell id="29" value="&lt;i&gt;Input&lt;/i&gt;&amp;nbsp;rekam medis" style="rounded=1;whiteSpace=wrap;html=1;fontFamily=Times New Roman;fontSize=10;" parent="3" vertex="1">
                    <mxGeometry x="25.999999999999545" y="353" width="80" height="40" as="geometry"/>
                </mxCell>
                <mxCell id="7" value="Memilih tombol PDF" style="rounded=1;whiteSpace=wrap;html=1;fontFamily=Times New Roman;fontSize=10;" parent="3" vertex="1">
                    <mxGeometry x="33.32999999999954" y="516" width="80" height="40" as="geometry"/>
                </mxCell>
                <mxCell id="45" value="" style="endArrow=classic;html=1;fontFamily=Times New Roman;fontSize=9;exitX=0.499;exitY=0.982;exitDx=0;exitDy=0;exitPerimeter=0;entryX=0.5;entryY=0;entryDx=0;entryDy=0;" parent="3" target="7" edge="1">
                    <mxGeometry relative="1" as="geometry">
                        <mxPoint x="73.24666000000002" y="485.0999999999999" as="sourcePoint"/>
                        <mxPoint x="85" y="546" as="targetPoint"/>
                    </mxGeometry>
                </mxCell>
                <mxCell id="46" value="Ya" style="edgeLabel;resizable=0;html=1;align=center;verticalAlign=middle;fontFamily=Times New Roman;fontSize=9;" parent="45" connectable="0" vertex="1">
                    <mxGeometry relative="1" as="geometry">
                        <mxPoint y="-3" as="offset"/>
                    </mxGeometry>
                </mxCell>
                <mxCell id="54" value="" style="edgeStyle=none;html=1;entryX=0.5;entryY=0;entryDx=0;entryDy=0;" parent="3" source="53" target="27" edge="1">
                    <mxGeometry relative="1" as="geometry"/>
                </mxCell>
                <mxCell id="53" value="&lt;font size=&quot;1&quot;&gt;Apakah ingin mengisi data?&lt;/font&gt;" style="html=1;whiteSpace=wrap;aspect=fixed;shape=isoRectangle;fontFamily=Times New Roman;fontSize=10;" parent="3" vertex="1">
                    <mxGeometry x="36.329999999999984" y="190" width="83.34" height="50" as="geometry"/>
                </mxCell>
                <mxCell id="60" value="Ya" style="edgeLabel;resizable=0;html=1;align=center;verticalAlign=middle;fontFamily=Times New Roman;fontSize=9;" parent="3" connectable="0" vertex="1">
                    <mxGeometry x="77.99598371075706" y="250.00482019655226" as="geometry"/>
                </mxCell>
                <mxCell id="15" value="" style="edgeStyle=none;html=1;fontFamily=Times New Roman;fontSize=9;" parent="2" source="6" target="10" edge="1">
                    <mxGeometry relative="1" as="geometry"/>
                </mxCell>
                <mxCell id="8" value="Sistem" style="swimlane;startSize=20;html=1;fontFamily=Times New Roman;fontSize=9;" parent="2" vertex="1">
                    <mxGeometry x="125.00454400072377" y="20" width="245" height="570" as="geometry"/>
                </mxCell>
                <mxCell id="9" value="" style="edgeStyle=none;html=1;fontSize=9;" parent="8" source="10" target="14" edge="1">
                    <mxGeometry relative="1" as="geometry"/>
                </mxCell>
                <mxCell id="10" value="Menampilkan halaman asesment kebidanan" style="rounded=1;whiteSpace=wrap;html=1;fontFamily=Times New Roman;fontSize=10;" parent="8" vertex="1">
                    <mxGeometry x="60.999999999999545" y="77" width="80" height="40" as="geometry"/>
                </mxCell>
                <mxCell id="14" value="" style="line;strokeWidth=4;html=1;perimeter=backbonePerimeter;points=[];outlineConnect=0;fontSize=9;" parent="8" vertex="1">
                    <mxGeometry x="90" y="130" width="20" height="10" as="geometry"/>
                </mxCell>
                <mxCell id="30" value="Menampilkan halaman entri&lt;i&gt;&amp;nbsp;&lt;/i&gt;pasien asesment kebidanan" style="rounded=1;whiteSpace=wrap;html=1;fontFamily=Times New Roman;fontSize=10;" parent="8" vertex="1">
                    <mxGeometry x="20.5" y="268" width="92.5" height="50" as="geometry"/>
                </mxCell>
                <mxCell id="50" value="" style="edgeStyle=none;html=1;" parent="8" source="31" target="28" edge="1">
                    <mxGeometry relative="1" as="geometry"/>
                </mxCell>
                <mxCell id="31" value="Validasi &lt;i&gt;form &lt;/i&gt;data rekam medis" style="rounded=1;whiteSpace=wrap;html=1;fontFamily=Times New Roman;fontSize=10;" parent="8" vertex="1">
                    <mxGeometry x="20.5" y="353" width="80" height="40" as="geometry"/>
                </mxCell>
                <mxCell id="28" value="&lt;font style=&quot;font-size: 9px;&quot;&gt;Apakah&lt;br style=&quot;border-color: var(--border-color);&quot;&gt;valid?&lt;/font&gt;" style="html=1;whiteSpace=wrap;aspect=fixed;shape=isoRectangle;fontFamily=Times New Roman;fontSize=10;" parent="8" vertex="1">
                    <mxGeometry x="26.66000000000048" y="413" width="66.67" height="40" as="geometry"/>
                </mxCell>
                <mxCell id="36" value="" style="endArrow=classic;html=1;fontFamily=Times New Roman;fontSize=9;exitX=0.988;exitY=0.502;exitDx=0;exitDy=0;exitPerimeter=0;entryX=0.75;entryY=1;entryDx=0;entryDy=0;" parent="8" source="28" target="10" edge="1">
                    <mxGeometry relative="1" as="geometry">
                        <mxPoint x="93.3300000000001" y="329.9" as="sourcePoint"/>
                        <mxPoint x="135.00000000000045" y="120" as="targetPoint"/>
                        <Array as="points">
                            <mxPoint x="120.99545599927623" y="433"/>
                        </Array>
                    </mxGeometry>
                </mxCell>
                <mxCell id="37" value="Ya" style="edgeLabel;resizable=0;html=1;align=center;verticalAlign=middle;fontFamily=Times New Roman;fontSize=9;" parent="36" connectable="0" vertex="1">
                    <mxGeometry relative="1" as="geometry">
                        <mxPoint x="-20" y="143" as="offset"/>
                    </mxGeometry>
                </mxCell>
                <mxCell id="11" value="Menampilkan dokumen PDF dan mengunduhnya" style="rounded=1;whiteSpace=wrap;html=1;fontFamily=Times New Roman;fontSize=10;" parent="8" vertex="1">
                    <mxGeometry x="26.659999999999997" y="511" width="80" height="50" as="geometry"/>
                </mxCell>
                <mxCell id="12" value="" style="ellipse;html=1;shape=endState;fillColor=strokeColor;fontFamily=Times New Roman;fontSize=10;" parent="8" vertex="1">
                    <mxGeometry x="149.9999999999991" y="521" width="30" height="30" as="geometry"/>
                </mxCell>
                <mxCell id="13" value="" style="edgeStyle=none;html=1;fontFamily=Times New Roman;fontSize=9;entryX=0;entryY=0.5;entryDx=0;entryDy=0;" parent="8" target="12" edge="1">
                    <mxGeometry relative="1" as="geometry">
                        <mxPoint x="106.65999999999957" y="535.9" as="sourcePoint"/>
                        <mxPoint x="136.65999999999957" y="536.07" as="targetPoint"/>
                    </mxGeometry>
                </mxCell>
                <mxCell id="79" value="Menampilkan data rekam medis" style="rounded=1;whiteSpace=wrap;html=1;fontFamily=Times New Roman;fontSize=10;" parent="8" vertex="1">
                    <mxGeometry x="148.99999999999997" y="302" width="92.5" height="50" as="geometry"/>
                </mxCell>
                <mxCell id="85" value="" style="edgeStyle=none;html=1;fontSize=9;entryX=0.5;entryY=0;entryDx=0;entryDy=0;" parent="8" target="12" edge="1">
                    <mxGeometry relative="1" as="geometry">
                        <mxPoint x="170.49999999999906" y="521" as="targetPoint"/>
                        <Array as="points">
                            <mxPoint x="100.49545599927623" y="138"/>
                            <mxPoint x="100.99545599927623" y="168"/>
                            <mxPoint x="134.99545599927623" y="168"/>
                            <mxPoint x="134.99545599927623" y="478"/>
                            <mxPoint x="164.99545599927623" y="478"/>
                        </Array>
                        <mxPoint x="100.49545599927623" y="136.88372093023253" as="sourcePoint"/>
                    </mxGeometry>
                </mxCell>
                <mxCell id="18" value="Admin dan Dokter" style="swimlane;startSize=20;html=1;fontFamily=Times New Roman;fontSize=9;" parent="2" vertex="1">
                    <mxGeometry x="370.00454400072374" y="20" width="180" height="570" as="geometry"/>
                </mxCell>
                <mxCell id="19" value="&lt;font face=&quot;Times New Roman&quot;&gt;1&lt;/font&gt;" style="ellipse;whiteSpace=wrap;html=1;aspect=fixed;" parent="18" vertex="1">
                    <mxGeometry x="74.99999999999955" y="23" width="30" height="30" as="geometry"/>
                </mxCell>
                <mxCell id="20" value="Memilih menu asesment kebidanan" style="rounded=1;whiteSpace=wrap;html=1;fontFamily=Times New Roman;fontSize=10;" parent="18" vertex="1">
                    <mxGeometry x="49.999999999999545" y="66" width="80" height="40" as="geometry"/>
                </mxCell>
                <mxCell id="21" value="" style="edgeStyle=none;html=1;fontFamily=Times New Roman;fontSize=9;" parent="18" source="19" target="20" edge="1">
                    <mxGeometry relative="1" as="geometry"/>
                </mxCell>
                <mxCell id="67" value="Mellihat data rekam medis" style="rounded=1;whiteSpace=wrap;html=1;fontFamily=Times New Roman;fontSize=10;" parent="18" vertex="1">
                    <mxGeometry x="49.999999999999545" y="307" width="80" height="40" as="geometry"/>
                </mxCell>
                <mxCell id="66" value="&lt;font style=&quot;font-size: 8px;&quot;&gt;Apakah ingin melihat data rekam medis?&lt;/font&gt;" style="html=1;whiteSpace=wrap;aspect=fixed;shape=isoRectangle;fontFamily=Times New Roman;fontSize=10;" parent="18" vertex="1">
                    <mxGeometry x="48.3254559992763" y="125" width="83.34" height="50" as="geometry"/>
                </mxCell>
                <mxCell id="od5FuJSQOpmuAWLQmTUA-85" value="Memilih tombol detail" style="rounded=1;whiteSpace=wrap;html=1;fontFamily=Times New Roman;fontSize=10;" parent="18" vertex="1">
                    <mxGeometry x="49.999999999999545" y="213" width="80" height="40" as="geometry"/>
                </mxCell>
                <mxCell id="81" value="" style="edgeStyle=none;html=1;exitX=0.5;exitY=0.978;exitDx=0;exitDy=0;exitPerimeter=0;entryX=0.5;entryY=0;entryDx=0;entryDy=0;" parent="18" source="66" target="od5FuJSQOpmuAWLQmTUA-85" edge="1">
                    <mxGeometry relative="1" as="geometry">
                        <mxPoint x="90.02166666666687" y="175" as="sourcePoint"/>
                        <mxPoint x="89.85333333333381" y="195" as="targetPoint"/>
                        <Array as="points">
                            <mxPoint x="89.99545599927626" y="188"/>
                        </Array>
                    </mxGeometry>
                </mxCell>
                <mxCell id="84" value="Ya" style="edgeLabel;resizable=0;html=1;align=center;verticalAlign=middle;fontFamily=Times New Roman;fontSize=9;" parent="18" connectable="0" vertex="1">
                    <mxGeometry x="90" y="-125" height="620" as="geometry">
                        <mxPoint as="offset"/>
                    </mxGeometry>
                </mxCell>
                <mxCell id="23" value="" style="edgeStyle=none;html=1;fontFamily=Times New Roman;fontSize=9;entryX=1;entryY=0.25;entryDx=0;entryDy=0;exitX=0;exitY=0.5;exitDx=0;exitDy=0;" parent="2" source="20" target="10" edge="1">
                    <mxGeometry relative="1" as="geometry">
                        <mxPoint x="259.99999999999955" y="127" as="sourcePoint"/>
                        <mxPoint x="299.99999999999955" y="127" as="targetPoint"/>
                    </mxGeometry>
                </mxCell>
                <mxCell id="24" value="" style="edgeStyle=none;html=1;fontSize=9;entryX=0.007;entryY=0.501;entryDx=0;entryDy=0;entryPerimeter=0;" parent="2" source="14" target="66" edge="1">
                    <mxGeometry relative="1" as="geometry">
                        <mxPoint x="390.0045440007234" y="170" as="targetPoint"/>
                        <Array as="points">
                            <mxPoint x="230" y="170"/>
                        </Array>
                    </mxGeometry>
                </mxCell>
                <mxCell id="32" value="" style="edgeStyle=none;html=1;" parent="2" source="27" target="30" edge="1">
                    <mxGeometry relative="1" as="geometry"/>
                </mxCell>
                <mxCell id="33" value="" style="edgeStyle=none;html=1;entryX=0.5;entryY=0;entryDx=0;entryDy=0;" parent="2" source="30" target="29" edge="1">
                    <mxGeometry relative="1" as="geometry">
                        <Array as="points">
                            <mxPoint x="190" y="353"/>
                            <mxPoint x="66" y="350"/>
                        </Array>
                    </mxGeometry>
                </mxCell>
                <mxCell id="34" value="" style="edgeStyle=none;html=1;" parent="2" source="29" target="31" edge="1">
                    <mxGeometry relative="1" as="geometry"/>
                </mxCell>
                <mxCell id="17" value="" style="edgeStyle=none;html=1;fontFamily=Times New Roman;fontSize=9;" parent="2" source="7" target="11" edge="1">
                    <mxGeometry relative="1" as="geometry"/>
                </mxCell>
                <mxCell id="25" value="" style="edgeStyle=none;html=1;fontFamily=Times New Roman;fontSize=9;exitX=0.5;exitY=1;exitDx=0;exitDy=0;entryX=1;entryY=0.5;entryDx=0;entryDy=0;" parent="2" source="67" target="12" edge="1">
                    <mxGeometry relative="1" as="geometry">
                        <mxPoint x="430.0045440007234" y="190" as="sourcePoint"/>
                        <mxPoint x="449.99999999999955" y="531.17" as="targetPoint"/>
                        <Array as="points">
                            <mxPoint x="460" y="556"/>
                        </Array>
                    </mxGeometry>
                </mxCell>
                <mxCell id="35" value="" style="endArrow=classic;html=1;fontFamily=Times New Roman;fontSize=9;entryX=0.5;entryY=1;entryDx=0;entryDy=0;exitX=0.005;exitY=0.501;exitDx=0;exitDy=0;exitPerimeter=0;" parent="2" source="28" target="29" edge="1">
                    <mxGeometry relative="1" as="geometry">
                        <mxPoint x="150" y="453" as="sourcePoint"/>
                        <mxPoint x="44.999999999999545" y="413" as="targetPoint"/>
                        <Array as="points">
                            <mxPoint x="66" y="450"/>
                        </Array>
                    </mxGeometry>
                </mxCell>
                <mxCell id="61" value="" style="edgeStyle=none;html=1;exitX=0.996;exitY=0.503;exitDx=0;exitDy=0;exitPerimeter=0;entryX=0.027;entryY=0.968;entryDx=0;entryDy=0;entryPerimeter=0;" parent="2" source="53" target="10" edge="1">
                    <mxGeometry relative="1" as="geometry">
                        <mxPoint x="145.49999999999955" y="240" as="sourcePoint"/>
                        <mxPoint x="173.00454400072385" y="240" as="targetPoint"/>
                        <Array as="points">
                            <mxPoint x="186" y="235"/>
                        </Array>
                    </mxGeometry>
                </mxCell>
                <mxCell id="71" value="" style="edgeStyle=none;html=1;fontFamily=Times New Roman;fontSize=9;entryX=1;entryY=0.849;entryDx=0;entryDy=0;exitX=0.502;exitY=0.019;exitDx=0;exitDy=0;exitPerimeter=0;entryPerimeter=0;" parent="2" source="66" target="10" edge="1">
                    <mxGeometry relative="1" as="geometry">
                        <mxPoint x="430.0045440007234" y="116" as="sourcePoint"/>
                        <mxPoint x="276.0045440007234" y="117" as="targetPoint"/>
                        <Array as="points">
                            <mxPoint x="460" y="131"/>
                        </Array>
                    </mxGeometry>
                </mxCell>
                <mxCell id="82" value="" style="edgeStyle=none;html=1;fontSize=8;" parent="2" source="79" target="67" edge="1">
                    <mxGeometry relative="1" as="geometry"/>
                </mxCell>
                <mxCell id="od5FuJSQOpmuAWLQmTUA-86" value="" style="edgeStyle=none;html=1;fontSize=8;entryX=0.5;entryY=0;entryDx=0;entryDy=0;" parent="2" source="od5FuJSQOpmuAWLQmTUA-85" target="79" edge="1">
                    <mxGeometry relative="1" as="geometry">
                        <Array as="points">
                            <mxPoint x="460" y="288"/>
                            <mxPoint x="320" y="288"/>
                        </Array>
                    </mxGeometry>
                </mxCell>
                <mxCell id="X17ZtnPM0R6z4wwgm6AX-85" value="" style="edgeStyle=none;html=1;entryX=0.501;entryY=0.005;entryDx=0;entryDy=0;entryPerimeter=0;" edge="1" parent="2" source="14" target="53">
                    <mxGeometry relative="1" as="geometry">
                        <mxPoint x="207.24999999999955" y="198" as="sourcePoint"/>
                        <mxPoint x="234.75454400072374" y="198" as="targetPoint"/>
                        <Array as="points">
                            <mxPoint x="220" y="168"/>
                            <mxPoint x="78" y="168"/>
                        </Array>
                    </mxGeometry>
                </mxCell>
                <mxCell id="52" value="&lt;font size=&quot;1&quot;&gt;Apakah ingin mengunduh?&lt;/font&gt;" style="html=1;whiteSpace=wrap;aspect=fixed;shape=isoRectangle;fontFamily=Times New Roman;fontSize=10;" parent="1" vertex="1">
                    <mxGeometry x="131.66" y="596" width="83.34" height="50" as="geometry"/>
                </mxCell>
                <mxCell id="65" value="Tidak" style="edgeLabel;resizable=0;html=1;align=center;verticalAlign=middle;fontFamily=Times New Roman;fontSize=9;" parent="1" connectable="0" vertex="1">
                    <mxGeometry x="239.00454400072377" y="67" height="620" as="geometry"/>
                </mxCell>
                <mxCell id="48" value="" style="endArrow=classic;html=1;fontFamily=Times New Roman;fontSize=9;exitX=0.997;exitY=0.496;exitDx=0;exitDy=0;exitPerimeter=0;entryX=0.75;entryY=1;entryDx=0;entryDy=0;" parent="1" source="52" target="10" edge="1">
                    <mxGeometry relative="1" as="geometry">
                        <mxPoint x="199.74998000000005" y="623" as="sourcePoint"/>
                        <mxPoint x="409.99999999999955" y="567" as="targetPoint"/>
                        <Array as="points">
                            <mxPoint x="346" y="620"/>
                        </Array>
                    </mxGeometry>
                </mxCell>
                <mxCell id="69" value="Tidak" style="edgeLabel;resizable=0;html=1;align=center;verticalAlign=middle;fontFamily=Times New Roman;fontSize=9;" parent="1" connectable="0" vertex="1">
                    <mxGeometry x="237.9999800000001" y="593" as="geometry">
                        <mxPoint as="offset"/>
                    </mxGeometry>
                </mxCell>
                <mxCell id="70" value="Tidak" style="edgeLabel;resizable=0;html=1;align=center;verticalAlign=middle;fontFamily=Times New Roman;fontSize=9;" parent="1" connectable="0" vertex="1">
                    <mxGeometry x="239.9999800000001" y="620" as="geometry"/>
                </mxCell>
                <mxCell id="77" value="Tidak" style="edgeLabel;resizable=0;html=1;align=center;verticalAlign=middle;fontFamily=Times New Roman;fontSize=9;" parent="1" connectable="0" vertex="1">
                    <mxGeometry x="508.3345440007238" y="-37" height="620" as="geometry">
                        <mxPoint as="offset"/>
                    </mxGeometry>
                </mxCell>
                <mxCell id="X17ZtnPM0R6z4wwgm6AX-86" value="" style="edgeStyle=none;html=1;entryX=0.003;entryY=0.505;entryDx=0;entryDy=0;entryPerimeter=0;" edge="1" parent="1" source="14" target="52">
                    <mxGeometry relative="1" as="geometry">
                        <mxPoint x="320" y="300" as="sourcePoint"/>
                        <mxPoint x="130" y="620" as="targetPoint"/>
                        <Array as="points">
                            <mxPoint x="320" y="310"/>
                            <mxPoint x="110" y="310"/>
                            <mxPoint x="110" y="620"/>
                        </Array>
                    </mxGeometry>
                </mxCell>
            </root>
        </mxGraphModel>
    </diagram>
    <diagram id="3A0CYu81AmWYucCBCVRp" name="master data pasien">
        <mxGraphModel dx="1549" dy="776" grid="1" gridSize="10" guides="1" tooltips="1" connect="1" arrows="1" fold="1" page="1" pageScale="1" pageWidth="850" pageHeight="1100" math="0" shadow="0">
            <root>
                <mxCell id="0"/>
                <mxCell id="1" parent="0"/>
                <mxCell id="0CjskNvug7XXSvdOBxq8-13" value="Master data pasien" style="swimlane;childLayout=stackLayout;resizeParent=1;resizeParentMax=0;startSize=20;html=1;fontFamily=Times New Roman;" parent="1" vertex="1">
                    <mxGeometry x="280.00000000000045" y="130" width="510" height="440" as="geometry"/>
                </mxCell>
                <mxCell id="0CjskNvug7XXSvdOBxq8-14" value="Petugas pendaftaran" style="swimlane;startSize=20;html=1;fontFamily=Times New Roman;" parent="0CjskNvug7XXSvdOBxq8-13" vertex="1">
                    <mxGeometry y="20" width="130" height="420" as="geometry"/>
                </mxCell>
                <mxCell id="vTWzUOC9NSG_afutrzHO-2" value="&lt;font face=&quot;Times New Roman&quot;&gt;1&lt;/font&gt;" style="ellipse;whiteSpace=wrap;html=1;aspect=fixed;" parent="0CjskNvug7XXSvdOBxq8-14" vertex="1">
                    <mxGeometry x="44.99999999999909" y="25" width="30" height="30" as="geometry"/>
                </mxCell>
                <mxCell id="vTWzUOC9NSG_afutrzHO-3" value="Memilih menu master data pasien" style="rounded=1;whiteSpace=wrap;html=1;fontFamily=Times New Roman;fontSize=10;" parent="0CjskNvug7XXSvdOBxq8-14" vertex="1">
                    <mxGeometry x="19.99999999999909" y="72" width="80" height="40" as="geometry"/>
                </mxCell>
                <mxCell id="vTWzUOC9NSG_afutrzHO-1" value="" style="edgeStyle=none;html=1;fontFamily=Times New Roman;fontSize=9;" parent="0CjskNvug7XXSvdOBxq8-14" source="vTWzUOC9NSG_afutrzHO-2" target="vTWzUOC9NSG_afutrzHO-3" edge="1">
                    <mxGeometry relative="1" as="geometry"/>
                </mxCell>
                <mxCell id="lDkWIAzaAYxO6NtyFlVR-2" value="&lt;font style=&quot;font-size: 8px;&quot;&gt;Apakah ingin menonaktifkan data?&lt;/font&gt;" style="html=1;whiteSpace=wrap;aspect=fixed;shape=isoRectangle;fontFamily=Times New Roman;fontSize=10;" parent="0CjskNvug7XXSvdOBxq8-14" vertex="1">
                    <mxGeometry x="40" y="165" width="83.34" height="50" as="geometry"/>
                </mxCell>
                <mxCell id="lDkWIAzaAYxO6NtyFlVR-4" value="Apakah ingin diubah?" style="html=1;whiteSpace=wrap;aspect=fixed;shape=isoRectangle;fontFamily=Times New Roman;fontSize=10;" parent="0CjskNvug7XXSvdOBxq8-14" vertex="1">
                    <mxGeometry x="19.999999999999503" y="245" width="80" height="48" as="geometry"/>
                </mxCell>
                <mxCell id="lDkWIAzaAYxO6NtyFlVR-3" value="Mengubah master data pasien" style="rounded=1;whiteSpace=wrap;html=1;fontFamily=Times New Roman;fontSize=10;" parent="0CjskNvug7XXSvdOBxq8-14" vertex="1">
                    <mxGeometry x="19.999999999999503" y="322" width="80" height="40" as="geometry"/>
                </mxCell>
                <mxCell id="lDkWIAzaAYxO6NtyFlVR-7" value="" style="endArrow=classic;html=1;fontFamily=Times New Roman;fontSize=9;exitX=0.5;exitY=0.982;exitDx=0;exitDy=0;exitPerimeter=0;entryX=0.5;entryY=0;entryDx=0;entryDy=0;" parent="0CjskNvug7XXSvdOBxq8-14" source="lDkWIAzaAYxO6NtyFlVR-4" target="lDkWIAzaAYxO6NtyFlVR-3" edge="1">
                    <mxGeometry relative="1" as="geometry">
                        <mxPoint x="-9.456659999999886" y="143" as="sourcePoint"/>
                        <mxPoint x="-9.470000000000425" y="168.84000000000003" as="targetPoint"/>
                    </mxGeometry>
                </mxCell>
                <mxCell id="lDkWIAzaAYxO6NtyFlVR-8" value="Ya" style="edgeLabel;resizable=0;html=1;align=center;verticalAlign=middle;fontFamily=Times New Roman;fontSize=9;" parent="lDkWIAzaAYxO6NtyFlVR-7" connectable="0" vertex="1">
                    <mxGeometry relative="1" as="geometry">
                        <mxPoint y="-5" as="offset"/>
                    </mxGeometry>
                </mxCell>
                <mxCell id="0CjskNvug7XXSvdOBxq8-15" value="Sistem" style="swimlane;startSize=20;html=1;fontFamily=Times New Roman;" parent="0CjskNvug7XXSvdOBxq8-13" vertex="1">
                    <mxGeometry x="130" y="20" width="260" height="420" as="geometry"/>
                </mxCell>
                <mxCell id="-UPqS8Ww6vhYm-YoyP73-1" value="Menampilkan halaman master data pasien" style="rounded=1;whiteSpace=wrap;html=1;fontFamily=Times New Roman;fontSize=10;" parent="0CjskNvug7XXSvdOBxq8-15" vertex="1">
                    <mxGeometry x="49.99999999999909" y="75" width="80" height="40" as="geometry"/>
                </mxCell>
                <mxCell id="pg2-F3Wmk4DxCJCJ_CRU-1" value="" style="line;strokeWidth=4;html=1;perimeter=backbonePerimeter;points=[];outlineConnect=0;fontSize=9;" parent="0CjskNvug7XXSvdOBxq8-15" vertex="1">
                    <mxGeometry x="67.49999999999909" y="125" width="45" height="10" as="geometry"/>
                </mxCell>
                <mxCell id="pg2-F3Wmk4DxCJCJ_CRU-2" value="" style="edgeStyle=none;html=1;fontFamily=Times New Roman;exitX=0.5;exitY=1;exitDx=0;exitDy=0;" parent="0CjskNvug7XXSvdOBxq8-15" source="-UPqS8Ww6vhYm-YoyP73-1" target="pg2-F3Wmk4DxCJCJ_CRU-1" edge="1">
                    <mxGeometry relative="1" as="geometry">
                        <mxPoint x="9.99999999999909" y="150" as="sourcePoint"/>
                        <mxPoint x="79.99999999999909" y="150" as="targetPoint"/>
                    </mxGeometry>
                </mxCell>
                <mxCell id="lDkWIAzaAYxO6NtyFlVR-13" value="Menonaktifkan data" style="rounded=1;whiteSpace=wrap;html=1;fontFamily=Times New Roman;fontSize=10;" parent="0CjskNvug7XXSvdOBxq8-15" vertex="1">
                    <mxGeometry x="127.99999999999949" y="170" width="80" height="40" as="geometry"/>
                </mxCell>
                <mxCell id="P0U7I8vjhZQHhG1B4qrD-28" value="" style="edgeStyle=none;html=1;fontFamily=Times New Roman;" parent="0CjskNvug7XXSvdOBxq8-15" source="lDkWIAzaAYxO6NtyFlVR-14" target="lDkWIAzaAYxO6NtyFlVR-15" edge="1">
                    <mxGeometry relative="1" as="geometry"/>
                </mxCell>
                <mxCell id="lDkWIAzaAYxO6NtyFlVR-14" value="Validasi &lt;i&gt;form&lt;/i&gt;&amp;nbsp;data master data pasien" style="rounded=1;whiteSpace=wrap;html=1;fontFamily=Times New Roman;fontSize=10;" parent="0CjskNvug7XXSvdOBxq8-15" vertex="1">
                    <mxGeometry x="33.669999999999504" y="322" width="80" height="40" as="geometry"/>
                </mxCell>
                <mxCell id="lDkWIAzaAYxO6NtyFlVR-15" value="&lt;font style=&quot;font-size: 9px;&quot;&gt;Apakah valid?&lt;/font&gt;" style="html=1;whiteSpace=wrap;aspect=fixed;shape=isoRectangle;fontFamily=Times New Roman;fontSize=10;" parent="0CjskNvug7XXSvdOBxq8-15" vertex="1">
                    <mxGeometry x="43.66999999999996" y="379" width="60" height="36" as="geometry"/>
                </mxCell>
                <mxCell id="lDkWIAzaAYxO6NtyFlVR-16" value="Perubahan tersimpan" style="rounded=1;whiteSpace=wrap;html=1;fontFamily=Times New Roman;fontSize=10;" parent="0CjskNvug7XXSvdOBxq8-15" vertex="1">
                    <mxGeometry x="132.6699999999995" y="377" width="80" height="40" as="geometry"/>
                </mxCell>
                <mxCell id="lDkWIAzaAYxO6NtyFlVR-17" value="" style="ellipse;html=1;shape=endState;fillColor=strokeColor;fontFamily=Times New Roman;fontSize=10;" parent="0CjskNvug7XXSvdOBxq8-15" vertex="1">
                    <mxGeometry x="227.66999999999905" y="382" width="30" height="30" as="geometry"/>
                </mxCell>
                <mxCell id="lDkWIAzaAYxO6NtyFlVR-18" value="" style="endArrow=classic;html=1;fontFamily=Times New Roman;fontSize=9;exitX=0.99;exitY=0.501;exitDx=0;exitDy=0;exitPerimeter=0;entryX=0;entryY=0.5;entryDx=0;entryDy=0;" parent="0CjskNvug7XXSvdOBxq8-15" source="lDkWIAzaAYxO6NtyFlVR-15" target="lDkWIAzaAYxO6NtyFlVR-16" edge="1">
                    <mxGeometry relative="1" as="geometry">
                        <mxPoint x="-420.3300000000014" y="112" as="sourcePoint"/>
                        <mxPoint x="-363.930000000001" y="113.11000000000001" as="targetPoint"/>
                    </mxGeometry>
                </mxCell>
                <mxCell id="lDkWIAzaAYxO6NtyFlVR-19" value="Ya" style="edgeLabel;resizable=0;html=1;align=center;verticalAlign=middle;fontFamily=Times New Roman;fontSize=9;" parent="lDkWIAzaAYxO6NtyFlVR-18" connectable="0" vertex="1">
                    <mxGeometry relative="1" as="geometry">
                        <mxPoint x="-3" y="-1" as="offset"/>
                    </mxGeometry>
                </mxCell>
                <mxCell id="lDkWIAzaAYxO6NtyFlVR-20" value="" style="edgeStyle=none;html=1;fontFamily=Times New Roman;fontSize=9;entryX=0.5;entryY=0;entryDx=0;entryDy=0;exitX=1;exitY=0.5;exitDx=0;exitDy=0;" parent="0CjskNvug7XXSvdOBxq8-15" source="lDkWIAzaAYxO6NtyFlVR-13" target="lDkWIAzaAYxO6NtyFlVR-17" edge="1">
                    <mxGeometry relative="1" as="geometry">
                        <mxPoint x="-97.33000000000095" y="49.66000000000008" as="sourcePoint"/>
                        <mxPoint x="-352.3300000000014" y="5" as="targetPoint"/>
                        <Array as="points">
                            <mxPoint x="242.99999999999955" y="190"/>
                        </Array>
                    </mxGeometry>
                </mxCell>
                <mxCell id="lDkWIAzaAYxO6NtyFlVR-22" value="" style="edgeStyle=none;html=1;fontFamily=Times New Roman;fontSize=9;" parent="0CjskNvug7XXSvdOBxq8-15" source="lDkWIAzaAYxO6NtyFlVR-16" target="lDkWIAzaAYxO6NtyFlVR-17" edge="1">
                    <mxGeometry relative="1" as="geometry"/>
                </mxCell>
                <mxCell id="Idza-VIPAk3x6t5aTBjF-1" value="Menampilkan detail master data pasien" style="rounded=1;whiteSpace=wrap;html=1;fontFamily=Times New Roman;fontSize=10;" parent="0CjskNvug7XXSvdOBxq8-15" vertex="1">
                    <mxGeometry x="150.66999999999953" y="252" width="80" height="40" as="geometry"/>
                </mxCell>
                <mxCell id="j857xoxEORLAhZKmNFFJ-5" value="" style="edgeStyle=none;html=1;fontFamily=Times New Roman;fontSize=9;entryX=0.5;entryY=0;entryDx=0;entryDy=0;" parent="0CjskNvug7XXSvdOBxq8-15" source="pg2-F3Wmk4DxCJCJ_CRU-1" target="lDkWIAzaAYxO6NtyFlVR-17" edge="1">
                    <mxGeometry relative="1" as="geometry">
                        <mxPoint x="122.99999999999955" y="200" as="sourcePoint"/>
                        <mxPoint x="252.66999999999894" y="392" as="targetPoint"/>
                        <Array as="points">
                            <mxPoint x="99.99999999999955" y="160"/>
                            <mxPoint x="242.99999999999955" y="160"/>
                        </Array>
                    </mxGeometry>
                </mxCell>
                <mxCell id="0CjskNvug7XXSvdOBxq8-16" value="Admin" style="swimlane;startSize=20;html=1;fontFamily=Times New Roman;" parent="0CjskNvug7XXSvdOBxq8-13" vertex="1">
                    <mxGeometry x="390" y="20" width="120" height="420" as="geometry"/>
                </mxCell>
                <mxCell id="miOEzCdH5A0rkZYciVwy-3" value="&lt;font face=&quot;Times New Roman&quot;&gt;1&lt;/font&gt;" style="ellipse;whiteSpace=wrap;html=1;aspect=fixed;" parent="0CjskNvug7XXSvdOBxq8-16" vertex="1">
                    <mxGeometry x="44.99999999999909" y="23" width="30" height="30" as="geometry"/>
                </mxCell>
                <mxCell id="miOEzCdH5A0rkZYciVwy-4" value="Memilih menu master data pasien" style="rounded=1;whiteSpace=wrap;html=1;fontFamily=Times New Roman;fontSize=10;" parent="0CjskNvug7XXSvdOBxq8-16" vertex="1">
                    <mxGeometry x="20" y="65" width="80" height="35" as="geometry"/>
                </mxCell>
                <mxCell id="miOEzCdH5A0rkZYciVwy-5" value="" style="edgeStyle=none;html=1;fontFamily=Times New Roman;fontSize=9;" parent="0CjskNvug7XXSvdOBxq8-16" source="miOEzCdH5A0rkZYciVwy-3" target="miOEzCdH5A0rkZYciVwy-4" edge="1">
                    <mxGeometry relative="1" as="geometry"/>
                </mxCell>
                <mxCell id="pg2-F3Wmk4DxCJCJ_CRU-3" value="Melihat detail master data pasien" style="rounded=1;whiteSpace=wrap;html=1;fontFamily=Times New Roman;fontSize=10;" parent="0CjskNvug7XXSvdOBxq8-16" vertex="1">
                    <mxGeometry x="19.99999999999909" y="252" width="80" height="40" as="geometry"/>
                </mxCell>
                <mxCell id="kb8SVOQb99ohZC1K8Be6-2" value="" style="edgeStyle=none;html=1;fontSize=8;" parent="0CjskNvug7XXSvdOBxq8-16" source="j857xoxEORLAhZKmNFFJ-1" target="kb8SVOQb99ohZC1K8Be6-1" edge="1">
                    <mxGeometry relative="1" as="geometry"/>
                </mxCell>
                <mxCell id="j857xoxEORLAhZKmNFFJ-1" value="&lt;font style=&quot;font-size: 8px;&quot;&gt;Apakah ingin melihat master data pasien?&lt;/font&gt;" style="html=1;whiteSpace=wrap;aspect=fixed;shape=isoRectangle;fontFamily=Times New Roman;fontSize=10;" parent="0CjskNvug7XXSvdOBxq8-16" vertex="1">
                    <mxGeometry x="18.329999999999586" y="122.04000000000002" width="83.34" height="50" as="geometry"/>
                </mxCell>
                <mxCell id="kb8SVOQb99ohZC1K8Be6-1" value="Memilih tombol detail" style="rounded=1;whiteSpace=wrap;html=1;fontFamily=Times New Roman;fontSize=10;" parent="0CjskNvug7XXSvdOBxq8-16" vertex="1">
                    <mxGeometry x="19.99999999999909" y="199" width="80" height="40" as="geometry"/>
                </mxCell>
                <mxCell id="TPQgdwk5pegJL5Rq0wzn-1" value="" style="edgeStyle=none;html=1;fontFamily=Times New Roman;" parent="0CjskNvug7XXSvdOBxq8-13" source="vTWzUOC9NSG_afutrzHO-3" target="-UPqS8Ww6vhYm-YoyP73-1" edge="1">
                    <mxGeometry relative="1" as="geometry"/>
                </mxCell>
                <mxCell id="TPQgdwk5pegJL5Rq0wzn-2" value="" style="edgeStyle=none;html=1;fontFamily=Times New Roman;entryX=1.001;entryY=0.187;entryDx=0;entryDy=0;exitX=-0.001;exitY=0.458;exitDx=0;exitDy=0;exitPerimeter=0;entryPerimeter=0;" parent="0CjskNvug7XXSvdOBxq8-13" source="miOEzCdH5A0rkZYciVwy-4" target="-UPqS8Ww6vhYm-YoyP73-1" edge="1">
                    <mxGeometry relative="1" as="geometry"/>
                </mxCell>
                <mxCell id="pg2-F3Wmk4DxCJCJ_CRU-4" value="" style="edgeStyle=none;html=1;fontFamily=Times New Roman;entryX=0.007;entryY=0.502;entryDx=0;entryDy=0;entryPerimeter=0;" parent="0CjskNvug7XXSvdOBxq8-13" source="pg2-F3Wmk4DxCJCJ_CRU-1" target="j857xoxEORLAhZKmNFFJ-1" edge="1">
                    <mxGeometry relative="1" as="geometry">
                        <mxPoint x="219.99999999999898" y="155" as="sourcePoint"/>
                        <mxPoint x="419.99999999999955" y="170" as="targetPoint"/>
                        <Array as="points">
                            <mxPoint x="239.99999999999955" y="167"/>
                        </Array>
                    </mxGeometry>
                </mxCell>
                <mxCell id="lDkWIAzaAYxO6NtyFlVR-25" value="" style="edgeStyle=none;html=1;fontFamily=Times New Roman;entryX=0.499;entryY=0.026;entryDx=0;entryDy=0;entryPerimeter=0;" parent="0CjskNvug7XXSvdOBxq8-13" source="pg2-F3Wmk4DxCJCJ_CRU-1" target="lDkWIAzaAYxO6NtyFlVR-2" edge="1">
                    <mxGeometry relative="1" as="geometry">
                        <mxPoint x="119.99999999999909" y="122" as="sourcePoint"/>
                        <mxPoint x="109.99999999999932" y="170" as="targetPoint"/>
                        <Array as="points">
                            <mxPoint x="209.99999999999955" y="170"/>
                            <mxPoint x="81.99999999999955" y="170"/>
                        </Array>
                    </mxGeometry>
                </mxCell>
                <mxCell id="lDkWIAzaAYxO6NtyFlVR-12" value="" style="endArrow=classic;html=1;fontFamily=Times New Roman;fontSize=9;exitX=0.996;exitY=0.501;exitDx=0;exitDy=0;exitPerimeter=0;entryX=0;entryY=0.75;entryDx=0;entryDy=0;" parent="0CjskNvug7XXSvdOBxq8-13" source="lDkWIAzaAYxO6NtyFlVR-4" target="-UPqS8Ww6vhYm-YoyP73-1" edge="1">
                    <mxGeometry relative="1" as="geometry">
                        <mxPoint x="30.67332000000016" y="165.05600000000004" as="sourcePoint"/>
                        <mxPoint x="153.66999999999962" y="289" as="targetPoint"/>
                        <Array as="points">
                            <mxPoint x="159.99999999999955" y="290"/>
                            <mxPoint x="159.99999999999955" y="125"/>
                        </Array>
                    </mxGeometry>
                </mxCell>
                <mxCell id="lDkWIAzaAYxO6NtyFlVR-11" value="" style="endArrow=classic;html=1;fontFamily=Times New Roman;fontSize=9;exitX=0.01;exitY=0.499;exitDx=0;exitDy=0;exitPerimeter=0;entryX=0.5;entryY=1;entryDx=0;entryDy=0;" parent="0CjskNvug7XXSvdOBxq8-13" source="lDkWIAzaAYxO6NtyFlVR-15" target="lDkWIAzaAYxO6NtyFlVR-3" edge="1">
                    <mxGeometry relative="1" as="geometry">
                        <mxPoint x="-117.3300000000014" y="152" as="sourcePoint"/>
                        <mxPoint x="-117.33000000000095" y="182" as="targetPoint"/>
                        <Array as="points">
                            <mxPoint x="59.999999999999545" y="417"/>
                        </Array>
                    </mxGeometry>
                </mxCell>
                <mxCell id="lDkWIAzaAYxO6NtyFlVR-10" value="" style="edgeStyle=none;html=1;fontFamily=Times New Roman;fontSize=9;" parent="0CjskNvug7XXSvdOBxq8-13" source="lDkWIAzaAYxO6NtyFlVR-3" target="lDkWIAzaAYxO6NtyFlVR-14" edge="1">
                    <mxGeometry relative="1" as="geometry"/>
                </mxCell>
                <mxCell id="P0U7I8vjhZQHhG1B4qrD-24" value="" style="endArrow=classic;html=1;fontFamily=Times New Roman;fontSize=9;exitX=1.005;exitY=0.504;exitDx=0;exitDy=0;exitPerimeter=0;entryX=0;entryY=0.5;entryDx=0;entryDy=0;" parent="0CjskNvug7XXSvdOBxq8-13" source="lDkWIAzaAYxO6NtyFlVR-2" target="lDkWIAzaAYxO6NtyFlVR-13" edge="1">
                    <mxGeometry relative="1" as="geometry">
                        <mxPoint x="87.1799999999995" y="234.968" as="sourcePoint"/>
                        <mxPoint x="149.99999999999955" y="230" as="targetPoint"/>
                        <Array as="points">
                            <mxPoint x="149.99999999999955" y="210"/>
                        </Array>
                    </mxGeometry>
                </mxCell>
                <mxCell id="P0U7I8vjhZQHhG1B4qrD-27" value="" style="edgeStyle=none;html=1;fontFamily=Times New Roman;entryX=-0.018;entryY=0.521;entryDx=0;entryDy=0;entryPerimeter=0;" parent="0CjskNvug7XXSvdOBxq8-13" source="pg2-F3Wmk4DxCJCJ_CRU-1" target="lDkWIAzaAYxO6NtyFlVR-4" edge="1">
                    <mxGeometry relative="1" as="geometry">
                        <mxPoint x="209.99999999999955" y="161.72222222222229" as="sourcePoint"/>
                        <mxPoint x="133.08997999999997" y="220.10000000000002" as="targetPoint"/>
                        <Array as="points">
                            <mxPoint x="199.99999999999955" y="160"/>
                            <mxPoint x="19.999999999999545" y="160"/>
                        </Array>
                    </mxGeometry>
                </mxCell>
                <mxCell id="P0U7I8vjhZQHhG1B4qrD-30" value="" style="endArrow=classic;html=1;fontFamily=Times New Roman;fontSize=9;exitX=0.494;exitY=0.963;exitDx=0;exitDy=0;exitPerimeter=0;entryX=0;entryY=0.75;entryDx=0;entryDy=0;" parent="0CjskNvug7XXSvdOBxq8-13" source="lDkWIAzaAYxO6NtyFlVR-2" target="-UPqS8Ww6vhYm-YoyP73-1" edge="1">
                    <mxGeometry relative="1" as="geometry">
                        <mxPoint x="109.6799999999995" y="299.048" as="sourcePoint"/>
                        <mxPoint x="193.66999999999962" y="269" as="targetPoint"/>
                        <Array as="points">
                            <mxPoint x="80.99999999999955" y="240"/>
                            <mxPoint x="159.99999999999955" y="240"/>
                            <mxPoint x="159.99999999999955" y="125"/>
                        </Array>
                    </mxGeometry>
                </mxCell>
                <mxCell id="lDkWIAzaAYxO6NtyFlVR-26" value="" style="edgeStyle=none;html=1;fontFamily=Times New Roman;fontSize=9;entryX=1;entryY=0.5;entryDx=0;entryDy=0;exitX=0.5;exitY=1;exitDx=0;exitDy=0;" parent="0CjskNvug7XXSvdOBxq8-13" source="pg2-F3Wmk4DxCJCJ_CRU-3" target="lDkWIAzaAYxO6NtyFlVR-17" edge="1">
                    <mxGeometry relative="1" as="geometry">
                        <mxPoint x="449.99999999999955" y="260" as="sourcePoint"/>
                        <mxPoint x="449.89999999999907" y="207" as="targetPoint"/>
                        <Array as="points">
                            <mxPoint x="449.99999999999955" y="417"/>
                        </Array>
                    </mxGeometry>
                </mxCell>
                <mxCell id="j857xoxEORLAhZKmNFFJ-2" value="" style="edgeStyle=none;html=1;fontFamily=Times New Roman;fontSize=9;entryX=0.995;entryY=0.839;entryDx=0;entryDy=0;exitX=0.502;exitY=0.019;exitDx=0;exitDy=0;exitPerimeter=0;entryPerimeter=0;" parent="0CjskNvug7XXSvdOBxq8-13" source="j857xoxEORLAhZKmNFFJ-1" target="-UPqS8Ww6vhYm-YoyP73-1" edge="1">
                    <mxGeometry relative="1" as="geometry">
                        <mxPoint x="334.00454400072294" y="-24.960000000000008" as="sourcePoint"/>
                        <mxPoint x="270.00454400072294" y="131.99999999999994" as="targetPoint"/>
                        <Array as="points">
                            <mxPoint x="449.99999999999955" y="130"/>
                        </Array>
                    </mxGeometry>
                </mxCell>
                <mxCell id="j857xoxEORLAhZKmNFFJ-4" value="" style="edgeStyle=none;html=1;fontSize=8;" parent="0CjskNvug7XXSvdOBxq8-13" source="Idza-VIPAk3x6t5aTBjF-1" target="pg2-F3Wmk4DxCJCJ_CRU-3" edge="1">
                    <mxGeometry relative="1" as="geometry"/>
                </mxCell>
                <mxCell id="kb8SVOQb99ohZC1K8Be6-3" value="" style="edgeStyle=none;html=1;fontSize=8;entryX=0.5;entryY=0;entryDx=0;entryDy=0;" parent="0CjskNvug7XXSvdOBxq8-13" source="kb8SVOQb99ohZC1K8Be6-1" target="Idza-VIPAk3x6t5aTBjF-1" edge="1">
                    <mxGeometry relative="1" as="geometry">
                        <Array as="points">
                            <mxPoint x="319.99999999999955" y="240"/>
                        </Array>
                    </mxGeometry>
                </mxCell>
                <mxCell id="P0U7I8vjhZQHhG1B4qrD-26" value="Ya" style="edgeLabel;resizable=0;html=1;align=center;verticalAlign=middle;fontFamily=Times New Roman;fontSize=9;" parent="1" connectable="0" vertex="1">
                    <mxGeometry x="390.0017320856101" y="363.0006791520511" as="geometry">
                        <mxPoint x="29" y="-23" as="offset"/>
                    </mxGeometry>
                </mxCell>
                <mxCell id="P0U7I8vjhZQHhG1B4qrD-29" value="Tidak" style="edgeLabel;resizable=0;html=1;align=center;verticalAlign=middle;fontFamily=Times New Roman;fontSize=9;" parent="1" connectable="0" vertex="1">
                    <mxGeometry x="437.0015995631097" y="546.9980197147538" as="geometry"/>
                </mxCell>
                <mxCell id="P0U7I8vjhZQHhG1B4qrD-31" value="Tidak" style="edgeLabel;resizable=0;html=1;align=center;verticalAlign=middle;fontFamily=Times New Roman;fontSize=9;" parent="1" connectable="0" vertex="1">
                    <mxGeometry x="394.0017320856101" y="419.0006791520511" as="geometry"/>
                </mxCell>
                <mxCell id="P0U7I8vjhZQHhG1B4qrD-33" value="Tidak" style="edgeLabel;resizable=0;html=1;align=center;verticalAlign=middle;fontFamily=Times New Roman;fontSize=9;" parent="1" connectable="0" vertex="1">
                    <mxGeometry x="390.0017320856101" y="370.0006791520511" as="geometry"/>
                </mxCell>
                <mxCell id="kb8SVOQb99ohZC1K8Be6-5" value="Tidak" style="edgeLabel;resizable=0;html=1;align=center;verticalAlign=middle;fontFamily=Times New Roman;fontSize=9;" parent="1" connectable="0" vertex="1">
                    <mxGeometry x="702.0000000000005" y="44" height="430" as="geometry"/>
                </mxCell>
                <mxCell id="kb8SVOQb99ohZC1K8Be6-6" value="Ya" style="edgeLabel;resizable=0;html=1;align=center;verticalAlign=middle;fontFamily=Times New Roman;fontSize=9;" parent="1" connectable="0" vertex="1">
                    <mxGeometry x="730.0000000000005" y="114" height="430" as="geometry"/>
                </mxCell>
            </root>
        </mxGraphModel>
    </diagram>
    <diagram id="hJ8H2oso4_-6q4l4K_t0" name="pendaftaran pasien">
        <mxGraphModel dx="1549" dy="776" grid="1" gridSize="10" guides="1" tooltips="1" connect="1" arrows="1" fold="1" page="1" pageScale="1" pageWidth="850" pageHeight="1100" math="0" shadow="0">
            <root>
                <mxCell id="0"/>
                <mxCell id="1" parent="0"/>
                <mxCell id="TbXEKTb50tzSQcVf79_Z-1" value="Pendaftaran pasien" style="swimlane;childLayout=stackLayout;resizeParent=1;resizeParentMax=0;startSize=20;html=1;fontFamily=Times New Roman;" parent="1" vertex="1">
                    <mxGeometry x="240.00000000000045" y="150" width="480" height="450" as="geometry"/>
                </mxCell>
                <mxCell id="TbXEKTb50tzSQcVf79_Z-2" value="Petugas pendaftaran" style="swimlane;startSize=20;html=1;fontFamily=Times New Roman;" parent="TbXEKTb50tzSQcVf79_Z-1" vertex="1">
                    <mxGeometry y="20" width="120" height="430" as="geometry"/>
                </mxCell>
                <mxCell id="ilOQpW1yJOFfReiwitLC-2" value="&lt;font face=&quot;Times New Roman&quot;&gt;1&lt;/font&gt;" style="ellipse;whiteSpace=wrap;html=1;aspect=fixed;" parent="TbXEKTb50tzSQcVf79_Z-2" vertex="1">
                    <mxGeometry x="44.99999999999909" y="28" width="30" height="30" as="geometry"/>
                </mxCell>
                <mxCell id="ilOQpW1yJOFfReiwitLC-3" value="Memilih menu entri kunjungan" style="rounded=1;whiteSpace=wrap;html=1;fontFamily=Times New Roman;fontSize=10;" parent="TbXEKTb50tzSQcVf79_Z-2" vertex="1">
                    <mxGeometry x="19.99999999999909" y="76" width="80" height="40" as="geometry"/>
                </mxCell>
                <mxCell id="ilOQpW1yJOFfReiwitLC-1" value="" style="edgeStyle=none;html=1;fontFamily=Times New Roman;fontSize=9;entryX=0.5;entryY=0;entryDx=0;entryDy=0;" parent="TbXEKTb50tzSQcVf79_Z-2" source="ilOQpW1yJOFfReiwitLC-2" target="ilOQpW1yJOFfReiwitLC-3" edge="1">
                    <mxGeometry relative="1" as="geometry"/>
                </mxCell>
                <mxCell id="OraRwU6w2QZNz5PVj2m5-5" value="Mencari data pasien" style="rounded=1;whiteSpace=wrap;html=1;fontFamily=Times New Roman;fontSize=10;" parent="TbXEKTb50tzSQcVf79_Z-2" vertex="1">
                    <mxGeometry x="19.99999999999909" y="130" width="80" height="40" as="geometry"/>
                </mxCell>
                <mxCell id="OraRwU6w2QZNz5PVj2m5-12" value="Menambah data pasien" style="rounded=1;whiteSpace=wrap;html=1;fontFamily=Times New Roman;fontSize=10;" parent="TbXEKTb50tzSQcVf79_Z-2" vertex="1">
                    <mxGeometry x="19.99999999999909" y="220" width="80" height="40" as="geometry"/>
                </mxCell>
                <mxCell id="OraRwU6w2QZNz5PVj2m5-17" value="&lt;i&gt;Input&lt;/i&gt;&amp;nbsp;data pasien baru" style="rounded=1;whiteSpace=wrap;html=1;fontFamily=Times New Roman;fontSize=10;" parent="TbXEKTb50tzSQcVf79_Z-2" vertex="1">
                    <mxGeometry x="19.99999999999909" y="327" width="80" height="40" as="geometry"/>
                </mxCell>
                <mxCell id="TbXEKTb50tzSQcVf79_Z-3" value="Sistem" style="swimlane;startSize=20;html=1;fontFamily=Times New Roman;" parent="TbXEKTb50tzSQcVf79_Z-1" vertex="1">
                    <mxGeometry x="120" y="20" width="240" height="430" as="geometry"/>
                </mxCell>
                <mxCell id="ilOQpW1yJOFfReiwitLC-7" value="Menampilkan halaman entri kunjungan" style="rounded=1;whiteSpace=wrap;html=1;fontFamily=Times New Roman;fontSize=10;" parent="TbXEKTb50tzSQcVf79_Z-3" vertex="1">
                    <mxGeometry x="79.99999999999909" y="76" width="80" height="40" as="geometry"/>
                </mxCell>
                <mxCell id="OraRwU6w2QZNz5PVj2m5-1" value="" style="line;strokeWidth=4;html=1;perimeter=backbonePerimeter;points=[];outlineConnect=0;fontSize=9;" parent="TbXEKTb50tzSQcVf79_Z-3" vertex="1">
                    <mxGeometry x="104" y="130" width="42.5" height="10" as="geometry"/>
                </mxCell>
                <mxCell id="OraRwU6w2QZNz5PVj2m5-2" value="" style="edgeStyle=none;html=1;fontFamily=Times New Roman;fontSize=9;" parent="TbXEKTb50tzSQcVf79_Z-3" target="OraRwU6w2QZNz5PVj2m5-1" edge="1">
                    <mxGeometry relative="1" as="geometry">
                        <mxPoint x="119.82999999999913" y="116" as="sourcePoint"/>
                        <mxPoint x="119.82999999999913" y="134" as="targetPoint"/>
                    </mxGeometry>
                </mxCell>
                <mxCell id="OraRwU6w2QZNz5PVj2m5-7" value="Apakah&lt;br style=&quot;border-color: var(--border-color);&quot;&gt;ada?" style="html=1;whiteSpace=wrap;aspect=fixed;shape=isoRectangle;fontFamily=Times New Roman;fontSize=10;" parent="TbXEKTb50tzSQcVf79_Z-3" vertex="1">
                    <mxGeometry x="16.15999999999957" y="181" width="63.34" height="38" as="geometry"/>
                </mxCell>
                <mxCell id="OraRwU6w2QZNz5PVj2m5-8" value="Menampilkan data pasien hasil pencarian" style="rounded=1;whiteSpace=wrap;html=1;fontFamily=Times New Roman;fontSize=10;" parent="TbXEKTb50tzSQcVf79_Z-3" vertex="1">
                    <mxGeometry x="132.82999999999913" y="180" width="80" height="40" as="geometry"/>
                </mxCell>
                <mxCell id="OraRwU6w2QZNz5PVj2m5-9" value="" style="endArrow=classic;html=1;fontFamily=Times New Roman;fontSize=9;exitX=0.997;exitY=0.499;exitDx=0;exitDy=0;exitPerimeter=0;entryX=0;entryY=0.5;entryDx=0;entryDy=0;" parent="TbXEKTb50tzSQcVf79_Z-3" source="OraRwU6w2QZNz5PVj2m5-7" target="OraRwU6w2QZNz5PVj2m5-8" edge="1">
                    <mxGeometry relative="1" as="geometry">
                        <mxPoint x="-99.1700000000003" y="76.87599999999998" as="sourcePoint"/>
                        <mxPoint x="-99.17000000000087" y="103.13" as="targetPoint"/>
                    </mxGeometry>
                </mxCell>
                <mxCell id="OraRwU6w2QZNz5PVj2m5-10" value="Iya" style="edgeLabel;resizable=0;html=1;align=center;verticalAlign=middle;fontFamily=Times New Roman;fontSize=9;" parent="OraRwU6w2QZNz5PVj2m5-9" connectable="0" vertex="1">
                    <mxGeometry relative="1" as="geometry">
                        <mxPoint x="6" y="-1" as="offset"/>
                    </mxGeometry>
                </mxCell>
                <mxCell id="OraRwU6w2QZNz5PVj2m5-15" value="Menampilkan halaman &lt;i&gt;input &lt;/i&gt;data pasien baru" style="rounded=1;whiteSpace=wrap;html=1;fontFamily=Times New Roman;fontSize=10;" parent="TbXEKTb50tzSQcVf79_Z-3" vertex="1">
                    <mxGeometry x="9.99999999999909" y="260" width="80" height="40" as="geometry"/>
                </mxCell>
                <mxCell id="cMoSyx5LPNYV3YlOHwsG-1" value="" style="ellipse;html=1;shape=endState;fillColor=strokeColor;fontFamily=Times New Roman;fontSize=10;" parent="TbXEKTb50tzSQcVf79_Z-3" vertex="1">
                    <mxGeometry x="204.9999999999991" y="365" width="30" height="30" as="geometry"/>
                </mxCell>
                <mxCell id="3rblkVzAHZPPIBCARBwJ-11" value="" style="edgeStyle=none;html=1;fontSize=8;entryX=0.5;entryY=0;entryDx=0;entryDy=0;" parent="TbXEKTb50tzSQcVf79_Z-3" source="OraRwU6w2QZNz5PVj2m5-8" target="cMoSyx5LPNYV3YlOHwsG-1" edge="1">
                    <mxGeometry relative="1" as="geometry">
                        <Array as="points">
                            <mxPoint x="219.99999999999955" y="200"/>
                        </Array>
                    </mxGeometry>
                </mxCell>
                <mxCell id="3rblkVzAHZPPIBCARBwJ-12" value="" style="edgeStyle=none;html=1;fontSize=8;entryX=0.5;entryY=0;entryDx=0;entryDy=0;" parent="TbXEKTb50tzSQcVf79_Z-3" source="OraRwU6w2QZNz5PVj2m5-1" target="cMoSyx5LPNYV3YlOHwsG-1" edge="1">
                    <mxGeometry relative="1" as="geometry">
                        <mxPoint x="201.82999999999902" y="210" as="sourcePoint"/>
                        <mxPoint x="229.9999999999991" y="375" as="targetPoint"/>
                        <Array as="points">
                            <mxPoint x="119.99999999999955" y="170"/>
                            <mxPoint x="219.99999999999955" y="170"/>
                            <mxPoint x="219.99999999999955" y="210"/>
                        </Array>
                    </mxGeometry>
                </mxCell>
                <mxCell id="zZobjHOT38WgLjL8s09I-4" value="" style="edgeStyle=none;html=1;fontSize=8;" parent="TbXEKTb50tzSQcVf79_Z-3" source="zZobjHOT38WgLjL8s09I-1" target="zZobjHOT38WgLjL8s09I-2" edge="1">
                    <mxGeometry relative="1" as="geometry"/>
                </mxCell>
                <mxCell id="zZobjHOT38WgLjL8s09I-1" value="Validasi &lt;i&gt;form &lt;/i&gt;data pasien baru" style="rounded=1;whiteSpace=wrap;html=1;fontFamily=Times New Roman;fontSize=10;" parent="TbXEKTb50tzSQcVf79_Z-3" vertex="1">
                    <mxGeometry x="9.50454400072331" y="329" width="80" height="40" as="geometry"/>
                </mxCell>
                <mxCell id="zZobjHOT38WgLjL8s09I-2" value="&lt;font style=&quot;font-size: 9px;&quot;&gt;Apakah&lt;br style=&quot;border-color: var(--border-color);&quot;&gt;valid?&lt;/font&gt;" style="html=1;whiteSpace=wrap;aspect=fixed;shape=isoRectangle;fontFamily=Times New Roman;fontSize=10;" parent="TbXEKTb50tzSQcVf79_Z-3" vertex="1">
                    <mxGeometry x="16.32454400072379" y="381" width="66.67" height="40" as="geometry"/>
                </mxCell>
                <mxCell id="Feqg-MIczBhPTpIu2Xzb-1" value="" style="endArrow=classic;html=1;fontFamily=Times New Roman;fontSize=9;exitX=0.993;exitY=0.504;exitDx=0;exitDy=0;exitPerimeter=0;entryX=0.25;entryY=1;entryDx=0;entryDy=0;" parent="TbXEKTb50tzSQcVf79_Z-3" source="zZobjHOT38WgLjL8s09I-2" target="ilOQpW1yJOFfReiwitLC-7" edge="1">
                    <mxGeometry relative="1" as="geometry">
                        <mxPoint x="82.98997999999955" y="400.702" as="sourcePoint"/>
                        <mxPoint x="136.50999999999902" y="400.74" as="targetPoint"/>
                        <Array as="points">
                            <mxPoint x="99.99999999999955" y="400"/>
                        </Array>
                    </mxGeometry>
                </mxCell>
                <mxCell id="Feqg-MIczBhPTpIu2Xzb-2" value="Iya" style="edgeLabel;resizable=0;html=1;align=center;verticalAlign=middle;fontFamily=Times New Roman;fontSize=9;" parent="Feqg-MIczBhPTpIu2Xzb-1" connectable="0" vertex="1">
                    <mxGeometry relative="1" as="geometry">
                        <mxPoint y="120" as="offset"/>
                    </mxGeometry>
                </mxCell>
                <mxCell id="TbXEKTb50tzSQcVf79_Z-4" value="Admin" style="swimlane;startSize=20;html=1;fontFamily=Times New Roman;" parent="TbXEKTb50tzSQcVf79_Z-1" vertex="1">
                    <mxGeometry x="360" y="20" width="120" height="430" as="geometry"/>
                </mxCell>
                <mxCell id="ilOQpW1yJOFfReiwitLC-4" value="&lt;font face=&quot;Times New Roman&quot;&gt;1&lt;/font&gt;" style="ellipse;whiteSpace=wrap;html=1;aspect=fixed;" parent="TbXEKTb50tzSQcVf79_Z-4" vertex="1">
                    <mxGeometry x="44.99999999999909" y="23" width="30" height="30" as="geometry"/>
                </mxCell>
                <mxCell id="ilOQpW1yJOFfReiwitLC-5" value="Memilih menu entri kunjungan" style="rounded=1;whiteSpace=wrap;html=1;fontFamily=Times New Roman;fontSize=10;" parent="TbXEKTb50tzSQcVf79_Z-4" vertex="1">
                    <mxGeometry x="19.99999999999909" y="68" width="80" height="40" as="geometry"/>
                </mxCell>
                <mxCell id="ilOQpW1yJOFfReiwitLC-6" value="" style="edgeStyle=none;html=1;fontFamily=Times New Roman;fontSize=9;entryX=0.5;entryY=0;entryDx=0;entryDy=0;" parent="TbXEKTb50tzSQcVf79_Z-4" source="ilOQpW1yJOFfReiwitLC-4" target="ilOQpW1yJOFfReiwitLC-5" edge="1">
                    <mxGeometry relative="1" as="geometry"/>
                </mxCell>
                <mxCell id="3rblkVzAHZPPIBCARBwJ-1" value="Menampilkan detail data pasien di pendaftaran" style="rounded=1;whiteSpace=wrap;html=1;fontFamily=Times New Roman;fontSize=10;" parent="TbXEKTb50tzSQcVf79_Z-4" vertex="1">
                    <mxGeometry x="-108.00000000000051" y="273.44" width="80" height="40" as="geometry"/>
                </mxCell>
                <mxCell id="3rblkVzAHZPPIBCARBwJ-2" value="Melihat detail data pasien di pendaftaran" style="rounded=1;whiteSpace=wrap;html=1;fontFamily=Times New Roman;fontSize=10;" parent="TbXEKTb50tzSQcVf79_Z-4" vertex="1">
                    <mxGeometry x="20.32999999999913" y="273.44" width="80" height="40" as="geometry"/>
                </mxCell>
                <mxCell id="3rblkVzAHZPPIBCARBwJ-4" value="&lt;font style=&quot;font-size: 8px;&quot;&gt;Apakah ingin melihat data pasien?&lt;/font&gt;" style="html=1;whiteSpace=wrap;aspect=fixed;shape=isoRectangle;fontFamily=Times New Roman;fontSize=10;" parent="TbXEKTb50tzSQcVf79_Z-4" vertex="1">
                    <mxGeometry x="18.659999999999627" y="124.48000000000002" width="83.34" height="50" as="geometry"/>
                </mxCell>
                <mxCell id="3rblkVzAHZPPIBCARBwJ-5" value="Memilih tombol detail" style="rounded=1;whiteSpace=wrap;html=1;fontFamily=Times New Roman;fontSize=10;" parent="TbXEKTb50tzSQcVf79_Z-4" vertex="1">
                    <mxGeometry x="20.32999999999913" y="220.44" width="80" height="40" as="geometry"/>
                </mxCell>
                <mxCell id="3rblkVzAHZPPIBCARBwJ-6" value="" style="edgeStyle=none;html=1;fontFamily=Times New Roman;fontSize=9;exitX=0.502;exitY=0.019;exitDx=0;exitDy=0;exitPerimeter=0;" parent="TbXEKTb50tzSQcVf79_Z-4" source="3rblkVzAHZPPIBCARBwJ-4" edge="1">
                    <mxGeometry relative="1" as="geometry">
                        <mxPoint x="-337.6654559992775" y="-153.52" as="sourcePoint"/>
                        <mxPoint x="-80.00000000000045" y="110" as="targetPoint"/>
                        <Array as="points">
                            <mxPoint x="59.999999999999545" y="110"/>
                        </Array>
                    </mxGeometry>
                </mxCell>
                <mxCell id="3rblkVzAHZPPIBCARBwJ-7" value="" style="edgeStyle=none;html=1;fontSize=8;" parent="TbXEKTb50tzSQcVf79_Z-4" source="3rblkVzAHZPPIBCARBwJ-1" target="3rblkVzAHZPPIBCARBwJ-2" edge="1">
                    <mxGeometry relative="1" as="geometry"/>
                </mxCell>
                <mxCell id="3rblkVzAHZPPIBCARBwJ-3" value="" style="edgeStyle=none;html=1;fontSize=8;" parent="TbXEKTb50tzSQcVf79_Z-4" source="3rblkVzAHZPPIBCARBwJ-4" target="3rblkVzAHZPPIBCARBwJ-5" edge="1">
                    <mxGeometry relative="1" as="geometry"/>
                </mxCell>
                <mxCell id="3rblkVzAHZPPIBCARBwJ-8" value="" style="edgeStyle=none;html=1;fontSize=8;entryX=0.5;entryY=0;entryDx=0;entryDy=0;" parent="TbXEKTb50tzSQcVf79_Z-4" source="3rblkVzAHZPPIBCARBwJ-5" target="3rblkVzAHZPPIBCARBwJ-1" edge="1">
                    <mxGeometry relative="1" as="geometry">
                        <Array as="points">
                            <mxPoint x="-68.00000000000045" y="240"/>
                        </Array>
                    </mxGeometry>
                </mxCell>
                <mxCell id="3rblkVzAHZPPIBCARBwJ-9" value="Tidak" style="edgeLabel;resizable=0;html=1;align=center;verticalAlign=middle;fontFamily=Times New Roman;fontSize=9;" parent="TbXEKTb50tzSQcVf79_Z-4" connectable="0" vertex="1">
                    <mxGeometry x="60.00010013565225" y="117" as="geometry"/>
                </mxCell>
                <mxCell id="ilOQpW1yJOFfReiwitLC-8" value="" style="edgeStyle=none;html=1;fontFamily=Times New Roman;" parent="TbXEKTb50tzSQcVf79_Z-1" source="ilOQpW1yJOFfReiwitLC-3" target="ilOQpW1yJOFfReiwitLC-7" edge="1">
                    <mxGeometry relative="1" as="geometry"/>
                </mxCell>
                <mxCell id="ilOQpW1yJOFfReiwitLC-9" value="" style="edgeStyle=none;html=1;fontFamily=Times New Roman;entryX=1.001;entryY=0.325;entryDx=0;entryDy=0;entryPerimeter=0;" parent="TbXEKTb50tzSQcVf79_Z-1" source="ilOQpW1yJOFfReiwitLC-5" target="ilOQpW1yJOFfReiwitLC-7" edge="1">
                    <mxGeometry relative="1" as="geometry"/>
                </mxCell>
                <mxCell id="OraRwU6w2QZNz5PVj2m5-4" value="" style="edgeStyle=none;html=1;fontFamily=Times New Roman;entryX=0.007;entryY=0.501;entryDx=0;entryDy=0;entryPerimeter=0;" parent="TbXEKTb50tzSQcVf79_Z-1" source="OraRwU6w2QZNz5PVj2m5-1" target="3rblkVzAHZPPIBCARBwJ-4" edge="1">
                    <mxGeometry relative="1" as="geometry">
                        <mxPoint x="339.9999999999991" y="210" as="sourcePoint"/>
                        <mxPoint x="379.9999999999991" y="170" as="targetPoint"/>
                        <Array as="points">
                            <mxPoint x="249.99999999999955" y="170"/>
                        </Array>
                    </mxGeometry>
                </mxCell>
                <mxCell id="OraRwU6w2QZNz5PVj2m5-6" value="" style="edgeStyle=none;html=1;fontFamily=Times New Roman;entryX=1;entryY=0.5;entryDx=0;entryDy=0;" parent="TbXEKTb50tzSQcVf79_Z-1" source="OraRwU6w2QZNz5PVj2m5-1" target="OraRwU6w2QZNz5PVj2m5-5" edge="1">
                    <mxGeometry relative="1" as="geometry">
                        <mxPoint x="134.9999999999992" y="200" as="sourcePoint"/>
                        <mxPoint x="234.9999999999991" y="200" as="targetPoint"/>
                        <Array as="points">
                            <mxPoint x="229.99999999999955" y="170"/>
                        </Array>
                    </mxGeometry>
                </mxCell>
                <mxCell id="OraRwU6w2QZNz5PVj2m5-11" value="" style="edgeStyle=none;html=1;fontFamily=Times New Roman;entryX=0.011;entryY=0.5;entryDx=0;entryDy=0;exitX=0.5;exitY=1;exitDx=0;exitDy=0;entryPerimeter=0;" parent="TbXEKTb50tzSQcVf79_Z-1" source="OraRwU6w2QZNz5PVj2m5-5" target="OraRwU6w2QZNz5PVj2m5-7" edge="1">
                    <mxGeometry relative="1" as="geometry">
                        <mxPoint x="29.999999999999545" y="210.00380952380954" as="sourcePoint"/>
                        <mxPoint x="159.9999999999991" y="223.48000000000002" as="targetPoint"/>
                        <Array as="points">
                            <mxPoint x="59.999999999999545" y="220"/>
                        </Array>
                    </mxGeometry>
                </mxCell>
                <mxCell id="OraRwU6w2QZNz5PVj2m5-13" value="" style="endArrow=classic;html=1;fontFamily=Times New Roman;fontSize=9;exitX=0.498;exitY=0.975;exitDx=0;exitDy=0;exitPerimeter=0;entryX=1;entryY=0.5;entryDx=0;entryDy=0;" parent="TbXEKTb50tzSQcVf79_Z-1" source="OraRwU6w2QZNz5PVj2m5-7" target="OraRwU6w2QZNz5PVj2m5-12" edge="1">
                    <mxGeometry relative="1" as="geometry">
                        <mxPoint x="173.97997999999967" y="280.002" as="sourcePoint"/>
                        <mxPoint x="212.49999999999915" y="280.04" as="targetPoint"/>
                        <Array as="points">
                            <mxPoint x="167.99999999999955" y="260"/>
                        </Array>
                    </mxGeometry>
                </mxCell>
                <mxCell id="OraRwU6w2QZNz5PVj2m5-14" value="Tidak" style="edgeLabel;resizable=0;html=1;align=center;verticalAlign=middle;fontFamily=Times New Roman;fontSize=9;" parent="OraRwU6w2QZNz5PVj2m5-13" connectable="0" vertex="1">
                    <mxGeometry relative="1" as="geometry">
                        <mxPoint x="23" y="-14" as="offset"/>
                    </mxGeometry>
                </mxCell>
                <mxCell id="OraRwU6w2QZNz5PVj2m5-16" value="" style="edgeStyle=none;html=1;fontFamily=Times New Roman;entryX=0;entryY=0.5;entryDx=0;entryDy=0;exitX=0.5;exitY=1;exitDx=0;exitDy=0;" parent="TbXEKTb50tzSQcVf79_Z-1" source="OraRwU6w2QZNz5PVj2m5-12" target="OraRwU6w2QZNz5PVj2m5-15" edge="1">
                    <mxGeometry relative="1" as="geometry">
                        <mxPoint x="69.99999999999909" y="290" as="sourcePoint"/>
                        <mxPoint x="159.8567399999995" y="320" as="targetPoint"/>
                        <Array as="points">
                            <mxPoint x="59.999999999999545" y="300"/>
                        </Array>
                    </mxGeometry>
                </mxCell>
                <mxCell id="OraRwU6w2QZNz5PVj2m5-18" value="" style="edgeStyle=none;html=1;fontFamily=Times New Roman;entryX=0.5;entryY=0;entryDx=0;entryDy=0;exitX=0.5;exitY=1;exitDx=0;exitDy=0;" parent="TbXEKTb50tzSQcVf79_Z-1" source="OraRwU6w2QZNz5PVj2m5-15" target="OraRwU6w2QZNz5PVj2m5-17" edge="1">
                    <mxGeometry relative="1" as="geometry">
                        <mxPoint x="69.99999999999909" y="290" as="sourcePoint"/>
                        <mxPoint x="209.9999999999991" y="310" as="targetPoint"/>
                        <Array as="points">
                            <mxPoint x="169.99999999999955" y="330"/>
                            <mxPoint x="59.999999999999545" y="330"/>
                        </Array>
                    </mxGeometry>
                </mxCell>
                <mxCell id="O1UA0DaLNBY0xbRDuH0f-1" value="" style="edgeStyle=none;html=1;fontSize=8;entryX=0;entryY=0.5;entryDx=0;entryDy=0;" parent="TbXEKTb50tzSQcVf79_Z-1" source="OraRwU6w2QZNz5PVj2m5-17" target="zZobjHOT38WgLjL8s09I-1" edge="1">
                    <mxGeometry relative="1" as="geometry"/>
                </mxCell>
                <mxCell id="B1hasYkz8P4WcxnSE0xT-1" value="" style="endArrow=classic;html=1;fontFamily=Times New Roman;fontSize=9;exitX=0.007;exitY=0.504;exitDx=0;exitDy=0;exitPerimeter=0;entryX=0.5;entryY=1;entryDx=0;entryDy=0;" parent="TbXEKTb50tzSQcVf79_Z-1" source="zZobjHOT38WgLjL8s09I-2" target="OraRwU6w2QZNz5PVj2m5-17" edge="1">
                    <mxGeometry relative="1" as="geometry">
                        <mxPoint x="112.70331999999962" y="400" as="sourcePoint"/>
                        <mxPoint x="44.99999999999909" y="421.95000000000005" as="targetPoint"/>
                        <Array as="points">
                            <mxPoint x="112.99999999999955" y="421.95000000000005"/>
                            <mxPoint x="59.999999999999545" y="420"/>
                        </Array>
                    </mxGeometry>
                </mxCell>
                <mxCell id="B1hasYkz8P4WcxnSE0xT-2" value="Tidak" style="edgeLabel;resizable=0;html=1;align=center;verticalAlign=middle;fontFamily=Times New Roman;fontSize=9;" parent="B1hasYkz8P4WcxnSE0xT-1" connectable="0" vertex="1">
                    <mxGeometry relative="1" as="geometry">
                        <mxPoint x="38" y="-1" as="offset"/>
                    </mxGeometry>
                </mxCell>
                <mxCell id="Feqg-MIczBhPTpIu2Xzb-3" value="" style="edgeStyle=none;html=1;fontSize=8;exitX=0.5;exitY=1;exitDx=0;exitDy=0;entryX=1;entryY=0.5;entryDx=0;entryDy=0;" parent="TbXEKTb50tzSQcVf79_Z-1" source="3rblkVzAHZPPIBCARBwJ-2" target="cMoSyx5LPNYV3YlOHwsG-1" edge="1">
                    <mxGeometry relative="1" as="geometry">
                        <mxPoint x="380.3299999999996" y="390" as="sourcePoint"/>
                        <mxPoint x="428.65999999999906" y="390" as="targetPoint"/>
                        <Array as="points">
                            <mxPoint x="419.99999999999955" y="400"/>
                        </Array>
                    </mxGeometry>
                </mxCell>
                <mxCell id="3rblkVzAHZPPIBCARBwJ-10" value="Iya" style="edgeLabel;resizable=0;html=1;align=center;verticalAlign=middle;fontFamily=Times New Roman;fontSize=9;" parent="1" connectable="0" vertex="1">
                    <mxGeometry x="465.50044513710486" y="382.98091873606506" as="geometry">
                        <mxPoint x="194" y="-30" as="offset"/>
                    </mxGeometry>
                </mxCell>
            </root>
        </mxGraphModel>
    </diagram>
    <diagram id="vLgB7w0Ek_QyLH1M_95X" name="kelola akun">
        <mxGraphModel dx="1549" dy="776" grid="1" gridSize="10" guides="1" tooltips="1" connect="1" arrows="1" fold="1" page="1" pageScale="1" pageWidth="850" pageHeight="1100" math="0" shadow="0">
            <root>
                <mxCell id="0"/>
                <mxCell id="1" parent="0"/>
                <mxCell id="R3t0cS9KJMK3SXHrxC7m-5" value="Kelola akun pengguna" style="swimlane;childLayout=stackLayout;resizeParent=1;resizeParentMax=0;startSize=20;html=1;fontFamily=Times New Roman;fontSize=9;" parent="1" vertex="1">
                    <mxGeometry x="190" y="130" width="480" height="720" as="geometry"/>
                </mxCell>
                <mxCell id="R3t0cS9KJMK3SXHrxC7m-6" value="Admin" style="swimlane;startSize=20;html=1;fontFamily=Times New Roman;fontSize=9;" parent="R3t0cS9KJMK3SXHrxC7m-5" vertex="1">
                    <mxGeometry y="20" width="120" height="700" as="geometry"/>
                </mxCell>
                <mxCell id="R3t0cS9KJMK3SXHrxC7m-7" value="" style="edgeStyle=none;html=1;fontFamily=Times New Roman;fontSize=9;entryX=0.5;entryY=0;entryDx=0;entryDy=0;" parent="R3t0cS9KJMK3SXHrxC7m-6" source="R3t0cS9KJMK3SXHrxC7m-8" target="R3t0cS9KJMK3SXHrxC7m-9" edge="1">
                    <mxGeometry relative="1" as="geometry"/>
                </mxCell>
                <mxCell id="R3t0cS9KJMK3SXHrxC7m-8" value="&lt;font face=&quot;Times New Roman&quot;&gt;1&lt;/font&gt;" style="ellipse;whiteSpace=wrap;html=1;aspect=fixed;" parent="R3t0cS9KJMK3SXHrxC7m-6" vertex="1">
                    <mxGeometry x="45" y="25" width="30" height="30" as="geometry"/>
                </mxCell>
                <mxCell id="R3t0cS9KJMK3SXHrxC7m-9" value="Memilih menu akun pengguna" style="rounded=1;whiteSpace=wrap;html=1;fontFamily=Times New Roman;fontSize=10;" parent="R3t0cS9KJMK3SXHrxC7m-6" vertex="1">
                    <mxGeometry x="20" y="70" width="80" height="40" as="geometry"/>
                </mxCell>
                <mxCell id="R3t0cS9KJMK3SXHrxC7m-10" value="&lt;font style=&quot;font-size: 8px;&quot;&gt;Apakah ingin menonaktifkan akun?&lt;/font&gt;" style="html=1;whiteSpace=wrap;aspect=fixed;shape=isoRectangle;fontFamily=Times New Roman;fontSize=10;" parent="R3t0cS9KJMK3SXHrxC7m-6" vertex="1">
                    <mxGeometry x="20" y="155" width="80" height="48" as="geometry"/>
                </mxCell>
                <mxCell id="R3t0cS9KJMK3SXHrxC7m-11" value="Mengubah data akun pengguna" style="rounded=1;whiteSpace=wrap;html=1;fontFamily=Times New Roman;fontSize=10;" parent="R3t0cS9KJMK3SXHrxC7m-6" vertex="1">
                    <mxGeometry x="27" y="348" width="80" height="40" as="geometry"/>
                </mxCell>
                <mxCell id="R3t0cS9KJMK3SXHrxC7m-12" value="" style="endArrow=classic;html=1;fontFamily=Times New Roman;fontSize=9;exitX=0.5;exitY=1.028;exitDx=0;exitDy=0;exitPerimeter=0;entryX=0.5;entryY=0;entryDx=0;entryDy=0;" parent="R3t0cS9KJMK3SXHrxC7m-6" source="R3t0cS9KJMK3SXHrxC7m-10" target="ZXGS0kEtsXICYGnzJw7R-1" edge="1">
                    <mxGeometry relative="1" as="geometry">
                        <mxPoint x="63.59999999999957" y="210" as="sourcePoint"/>
                        <mxPoint x="60" y="240" as="targetPoint"/>
                        <Array as="points">
                            <mxPoint x="60" y="220"/>
                        </Array>
                    </mxGeometry>
                </mxCell>
                <mxCell id="R3t0cS9KJMK3SXHrxC7m-13" value="Ya" style="edgeLabel;resizable=0;html=1;align=center;verticalAlign=middle;fontFamily=Times New Roman;fontSize=9;" parent="R3t0cS9KJMK3SXHrxC7m-12" connectable="0" vertex="1">
                    <mxGeometry relative="1" as="geometry">
                        <mxPoint y="-4" as="offset"/>
                    </mxGeometry>
                </mxCell>
                <mxCell id="R3t0cS9KJMK3SXHrxC7m-14" value="Apakah ingin diubah?" style="html=1;whiteSpace=wrap;aspect=fixed;shape=isoRectangle;fontFamily=Times New Roman;fontSize=10;" parent="R3t0cS9KJMK3SXHrxC7m-6" vertex="1">
                    <mxGeometry x="27" y="278" width="80" height="48" as="geometry"/>
                </mxCell>
                <mxCell id="R3t0cS9KJMK3SXHrxC7m-16" value="" style="endArrow=classic;html=1;fontFamily=Times New Roman;fontSize=9;exitX=0.503;exitY=0.983;exitDx=0;exitDy=0;exitPerimeter=0;entryX=0.505;entryY=0.037;entryDx=0;entryDy=0;entryPerimeter=0;" parent="R3t0cS9KJMK3SXHrxC7m-6" source="R3t0cS9KJMK3SXHrxC7m-14" target="R3t0cS9KJMK3SXHrxC7m-11" edge="1">
                    <mxGeometry relative="1" as="geometry">
                        <mxPoint x="66.99000000000001" y="333.6239999999999" as="sourcePoint"/>
                        <mxPoint x="66.83000000000004" y="360" as="targetPoint"/>
                        <Array as="points">
                            <mxPoint x="66.99000000000001" y="349.28"/>
                        </Array>
                    </mxGeometry>
                </mxCell>
                <mxCell id="R3t0cS9KJMK3SXHrxC7m-17" value="Ya" style="edgeLabel;resizable=0;html=1;align=center;verticalAlign=middle;fontFamily=Times New Roman;fontSize=9;" parent="R3t0cS9KJMK3SXHrxC7m-16" connectable="0" vertex="1">
                    <mxGeometry relative="1" as="geometry">
                        <mxPoint y="-4" as="offset"/>
                    </mxGeometry>
                </mxCell>
                <mxCell id="ZXGS0kEtsXICYGnzJw7R-1" value="Mengklik tombol aktif/nonaktif akun yang dipilih" style="rounded=1;whiteSpace=wrap;html=1;fontFamily=Times New Roman;fontSize=10;" parent="R3t0cS9KJMK3SXHrxC7m-6" vertex="1">
                    <mxGeometry x="20" y="233" width="80" height="40" as="geometry"/>
                </mxCell>
                <mxCell id="ZXGS0kEtsXICYGnzJw7R-3" value="" style="edgeStyle=none;html=1;fontFamily=Times New Roman;fontSize=9;entryX=0;entryY=0.5;entryDx=0;entryDy=0;" parent="R3t0cS9KJMK3SXHrxC7m-6" target="R3t0cS9KJMK3SXHrxC7m-26" edge="1">
                    <mxGeometry relative="1" as="geometry">
                        <mxPoint x="100" y="252.8" as="sourcePoint"/>
                        <mxPoint x="140" y="252.8" as="targetPoint"/>
                    </mxGeometry>
                </mxCell>
                <mxCell id="5F5H-l57dZQpDTvLV7wY-14" value="&lt;font style=&quot;font-size: 9px;&quot;&gt;Apakah ingin tambah akun?&lt;/font&gt;" style="html=1;whiteSpace=wrap;aspect=fixed;shape=isoRectangle;fontFamily=Times New Roman;fontSize=10;" vertex="1" parent="R3t0cS9KJMK3SXHrxC7m-6">
                    <mxGeometry x="27" y="437" width="80" height="48" as="geometry"/>
                </mxCell>
                <mxCell id="R3t0cS9KJMK3SXHrxC7m-18" value="" style="edgeStyle=none;html=1;fontFamily=Times New Roman;fontSize=9;" parent="R3t0cS9KJMK3SXHrxC7m-5" source="R3t0cS9KJMK3SXHrxC7m-9" target="R3t0cS9KJMK3SXHrxC7m-25" edge="1">
                    <mxGeometry relative="1" as="geometry"/>
                </mxCell>
                <mxCell id="R3t0cS9KJMK3SXHrxC7m-19" value="" style="edgeStyle=none;html=1;fontFamily=Times New Roman;fontSize=9;entryX=0.5;entryY=0.017;entryDx=0;entryDy=0;entryPerimeter=0;" parent="R3t0cS9KJMK3SXHrxC7m-5" source="qsqm8T2R4mF9ftBI462v-1" target="R3t0cS9KJMK3SXHrxC7m-10" edge="1">
                    <mxGeometry relative="1" as="geometry">
                        <Array as="points">
                            <mxPoint x="230" y="160"/>
                            <mxPoint x="60" y="160"/>
                        </Array>
                        <mxPoint x="60" y="180" as="targetPoint"/>
                        <mxPoint x="180" y="150" as="sourcePoint"/>
                    </mxGeometry>
                </mxCell>
                <mxCell id="R3t0cS9KJMK3SXHrxC7m-20" value="" style="endArrow=classic;html=1;fontFamily=Times New Roman;fontSize=9;exitX=0.993;exitY=0.503;exitDx=0;exitDy=0;exitPerimeter=0;entryX=0.13;entryY=1;entryDx=0;entryDy=0;entryPerimeter=0;" parent="R3t0cS9KJMK3SXHrxC7m-5" source="R3t0cS9KJMK3SXHrxC7m-10" target="R3t0cS9KJMK3SXHrxC7m-25" edge="1">
                    <mxGeometry relative="1" as="geometry">
                        <mxPoint x="60" y="224" as="sourcePoint"/>
                        <mxPoint x="160" y="224" as="targetPoint"/>
                        <Array as="points">
                            <mxPoint x="205" y="200"/>
                        </Array>
                    </mxGeometry>
                </mxCell>
                <mxCell id="R3t0cS9KJMK3SXHrxC7m-22" value="" style="edgeStyle=none;html=1;fontFamily=Times New Roman;fontSize=9;" parent="R3t0cS9KJMK3SXHrxC7m-5" source="R3t0cS9KJMK3SXHrxC7m-11" target="R3t0cS9KJMK3SXHrxC7m-28" edge="1">
                    <mxGeometry relative="1" as="geometry"/>
                </mxCell>
                <mxCell id="R3t0cS9KJMK3SXHrxC7m-23" value="" style="endArrow=classic;html=1;fontFamily=Times New Roman;fontSize=9;exitX=-0.004;exitY=0.506;exitDx=0;exitDy=0;exitPerimeter=0;entryX=0.5;entryY=1;entryDx=0;entryDy=0;" parent="R3t0cS9KJMK3SXHrxC7m-5" source="R3t0cS9KJMK3SXHrxC7m-29" target="R3t0cS9KJMK3SXHrxC7m-11" edge="1">
                    <mxGeometry relative="1" as="geometry">
                        <mxPoint x="139.99999999999955" y="438" as="sourcePoint"/>
                        <mxPoint x="140" y="468" as="targetPoint"/>
                        <Array as="points">
                            <mxPoint x="67" y="450"/>
                        </Array>
                    </mxGeometry>
                </mxCell>
                <mxCell id="R3t0cS9KJMK3SXHrxC7m-15" value="" style="endArrow=classic;html=1;fontFamily=Times New Roman;fontSize=9;entryX=0.13;entryY=1.005;entryDx=0;entryDy=0;exitX=0.995;exitY=0.502;exitDx=0;exitDy=0;exitPerimeter=0;entryPerimeter=0;" parent="R3t0cS9KJMK3SXHrxC7m-5" source="R3t0cS9KJMK3SXHrxC7m-14" target="R3t0cS9KJMK3SXHrxC7m-25" edge="1">
                    <mxGeometry relative="1" as="geometry">
                        <mxPoint x="110" y="330" as="sourcePoint"/>
                        <mxPoint x="145" y="326" as="targetPoint"/>
                        <Array as="points">
                            <mxPoint x="205" y="320"/>
                        </Array>
                    </mxGeometry>
                </mxCell>
                <mxCell id="ZXGS0kEtsXICYGnzJw7R-4" value="" style="edgeStyle=none;html=1;fontFamily=Times New Roman;fontSize=9;entryX=-0.002;entryY=0.5;entryDx=0;entryDy=0;entryPerimeter=0;" parent="R3t0cS9KJMK3SXHrxC7m-5" source="qsqm8T2R4mF9ftBI462v-1" target="R3t0cS9KJMK3SXHrxC7m-14" edge="1">
                    <mxGeometry relative="1" as="geometry">
                        <Array as="points">
                            <mxPoint x="230" y="160"/>
                            <mxPoint x="10" y="160"/>
                            <mxPoint x="10" y="320"/>
                        </Array>
                        <mxPoint x="50" y="320" as="targetPoint"/>
                        <mxPoint x="240" y="156.42857142857144" as="sourcePoint"/>
                    </mxGeometry>
                </mxCell>
                <mxCell id="5F5H-l57dZQpDTvLV7wY-15" value="" style="edgeStyle=none;html=1;fontFamily=Times New Roman;fontSize=9;entryX=-0.002;entryY=0.506;entryDx=0;entryDy=0;entryPerimeter=0;" edge="1" parent="R3t0cS9KJMK3SXHrxC7m-5" source="qsqm8T2R4mF9ftBI462v-1" target="5F5H-l57dZQpDTvLV7wY-14">
                    <mxGeometry relative="1" as="geometry">
                        <Array as="points">
                            <mxPoint x="230" y="160"/>
                            <mxPoint x="10" y="160"/>
                            <mxPoint x="10" y="481"/>
                        </Array>
                        <mxPoint x="36.840000000000146" y="331.9999999999999" as="targetPoint"/>
                        <mxPoint x="240" y="156.31034482758628" as="sourcePoint"/>
                    </mxGeometry>
                </mxCell>
                <mxCell id="5F5H-l57dZQpDTvLV7wY-16" value="" style="endArrow=classic;html=1;fontFamily=Times New Roman;fontSize=9;exitX=0.5;exitY=0.983;exitDx=0;exitDy=0;exitPerimeter=0;entryX=0.5;entryY=0;entryDx=0;entryDy=0;" edge="1" parent="R3t0cS9KJMK3SXHrxC7m-5" source="5F5H-l57dZQpDTvLV7wY-14" target="5F5H-l57dZQpDTvLV7wY-1">
                    <mxGeometry relative="1" as="geometry">
                        <mxPoint x="59.999990000000054" y="520" as="sourcePoint"/>
                        <mxPoint x="153.52999999999997" y="520.32" as="targetPoint"/>
                    </mxGeometry>
                </mxCell>
                <mxCell id="5F5H-l57dZQpDTvLV7wY-17" value="Ya" style="edgeLabel;resizable=0;html=1;align=center;verticalAlign=middle;fontFamily=Times New Roman;fontSize=9;" connectable="0" vertex="1" parent="5F5H-l57dZQpDTvLV7wY-16">
                    <mxGeometry relative="1" as="geometry">
                        <mxPoint y="-4" as="offset"/>
                    </mxGeometry>
                </mxCell>
                <mxCell id="5F5H-l57dZQpDTvLV7wY-18" value="" style="endArrow=classic;html=1;fontFamily=Times New Roman;fontSize=9;exitX=0.997;exitY=0.499;exitDx=0;exitDy=0;exitPerimeter=0;entryX=0.75;entryY=1;entryDx=0;entryDy=0;" edge="1" parent="R3t0cS9KJMK3SXHrxC7m-5" source="5F5H-l57dZQpDTvLV7wY-14" target="R3t0cS9KJMK3SXHrxC7m-25">
                    <mxGeometry relative="1" as="geometry">
                        <mxPoint x="107.99999000000003" y="481" as="sourcePoint"/>
                        <mxPoint x="201.52999999999997" y="481.32000000000005" as="targetPoint"/>
                        <Array as="points">
                            <mxPoint x="255" y="480"/>
                        </Array>
                    </mxGeometry>
                </mxCell>
                <mxCell id="R3t0cS9KJMK3SXHrxC7m-24" value="Sistem" style="swimlane;startSize=20;html=1;fontFamily=Times New Roman;fontSize=9;" parent="R3t0cS9KJMK3SXHrxC7m-5" vertex="1">
                    <mxGeometry x="120" y="20" width="360" height="700" as="geometry"/>
                </mxCell>
                <mxCell id="qsqm8T2R4mF9ftBI462v-2" value="" style="edgeStyle=none;html=1;fontFamily=Times New Roman;fontSize=8;" parent="R3t0cS9KJMK3SXHrxC7m-24" source="R3t0cS9KJMK3SXHrxC7m-25" target="qsqm8T2R4mF9ftBI462v-1" edge="1">
                    <mxGeometry relative="1" as="geometry"/>
                </mxCell>
                <mxCell id="R3t0cS9KJMK3SXHrxC7m-25" value="Menampilkan halaman data akun pengguna" style="rounded=1;whiteSpace=wrap;html=1;fontFamily=Times New Roman;fontSize=10;" parent="R3t0cS9KJMK3SXHrxC7m-24" vertex="1">
                    <mxGeometry x="75" y="70" width="80" height="40" as="geometry"/>
                </mxCell>
                <mxCell id="R3t0cS9KJMK3SXHrxC7m-26" value="Menonaktifkan akun pengguna" style="rounded=1;whiteSpace=wrap;html=1;fontFamily=Times New Roman;fontSize=10;" parent="R3t0cS9KJMK3SXHrxC7m-24" vertex="1">
                    <mxGeometry x="176" y="234" width="80" height="40" as="geometry"/>
                </mxCell>
                <mxCell id="R3t0cS9KJMK3SXHrxC7m-27" value="" style="edgeStyle=none;html=1;fontFamily=Times New Roman;fontSize=9;" parent="R3t0cS9KJMK3SXHrxC7m-24" source="R3t0cS9KJMK3SXHrxC7m-28" target="R3t0cS9KJMK3SXHrxC7m-29" edge="1">
                    <mxGeometry relative="1" as="geometry"/>
                </mxCell>
                <mxCell id="R3t0cS9KJMK3SXHrxC7m-28" value="Validasi &lt;i&gt;form&lt;/i&gt;&amp;nbsp;data akun pengguna" style="rounded=1;whiteSpace=wrap;html=1;fontFamily=Times New Roman;fontSize=10;" parent="R3t0cS9KJMK3SXHrxC7m-24" vertex="1">
                    <mxGeometry x="30" y="348" width="80" height="40" as="geometry"/>
                </mxCell>
                <mxCell id="R3t0cS9KJMK3SXHrxC7m-29" value="&lt;font style=&quot;font-size: 9px;&quot;&gt;Apakah&lt;br style=&quot;border-color: var(--border-color);&quot;&gt;valid?&lt;/font&gt;" style="html=1;whiteSpace=wrap;aspect=fixed;shape=isoRectangle;fontFamily=Times New Roman;fontSize=10;" parent="R3t0cS9KJMK3SXHrxC7m-24" vertex="1">
                    <mxGeometry x="37" y="407" width="66.67" height="40" as="geometry"/>
                </mxCell>
                <mxCell id="R3t0cS9KJMK3SXHrxC7m-30" value="" style="edgeStyle=none;html=1;fontFamily=Times New Roman;fontSize=9;entryX=0.75;entryY=1;entryDx=0;entryDy=0;exitX=0.5;exitY=0;exitDx=0;exitDy=0;" parent="R3t0cS9KJMK3SXHrxC7m-24" source="R3t0cS9KJMK3SXHrxC7m-31" target="R3t0cS9KJMK3SXHrxC7m-25" edge="1">
                    <mxGeometry relative="1" as="geometry">
                        <mxPoint x="150" y="260" as="targetPoint"/>
                        <Array as="points">
                            <mxPoint x="218" y="340"/>
                            <mxPoint x="135" y="340"/>
                        </Array>
                    </mxGeometry>
                </mxCell>
                <mxCell id="R3t0cS9KJMK3SXHrxC7m-31" value="Perubahan tersimpan" style="rounded=1;whiteSpace=wrap;html=1;fontFamily=Times New Roman;fontSize=10;" parent="R3t0cS9KJMK3SXHrxC7m-24" vertex="1">
                    <mxGeometry x="178" y="407" width="80" height="40" as="geometry"/>
                </mxCell>
                <mxCell id="R3t0cS9KJMK3SXHrxC7m-32" value="" style="ellipse;html=1;shape=endState;fillColor=strokeColor;fontFamily=Times New Roman;fontSize=10;" parent="R3t0cS9KJMK3SXHrxC7m-24" vertex="1">
                    <mxGeometry x="257.99999999999955" y="630" width="30" height="30" as="geometry"/>
                </mxCell>
                <mxCell id="R3t0cS9KJMK3SXHrxC7m-33" value="" style="endArrow=classic;html=1;fontFamily=Times New Roman;fontSize=9;exitX=0.997;exitY=0.492;exitDx=0;exitDy=0;exitPerimeter=0;entryX=0;entryY=0.5;entryDx=0;entryDy=0;" parent="R3t0cS9KJMK3SXHrxC7m-24" source="R3t0cS9KJMK3SXHrxC7m-29" target="R3t0cS9KJMK3SXHrxC7m-31" edge="1">
                    <mxGeometry relative="1" as="geometry">
                        <mxPoint x="2.9999999999995737" y="438" as="sourcePoint"/>
                        <mxPoint x="36" y="424" as="targetPoint"/>
                    </mxGeometry>
                </mxCell>
                <mxCell id="R3t0cS9KJMK3SXHrxC7m-34" value="Ya" style="edgeLabel;resizable=0;html=1;align=center;verticalAlign=middle;fontFamily=Times New Roman;fontSize=9;" parent="R3t0cS9KJMK3SXHrxC7m-33" connectable="0" vertex="1">
                    <mxGeometry relative="1" as="geometry">
                        <mxPoint x="-27" y="-1" as="offset"/>
                    </mxGeometry>
                </mxCell>
                <mxCell id="R3t0cS9KJMK3SXHrxC7m-35" value="" style="edgeStyle=none;html=1;fontFamily=Times New Roman;fontSize=9;entryX=1;entryY=0.5;entryDx=0;entryDy=0;exitX=0.5;exitY=0;exitDx=0;exitDy=0;" parent="R3t0cS9KJMK3SXHrxC7m-24" source="R3t0cS9KJMK3SXHrxC7m-26" target="R3t0cS9KJMK3SXHrxC7m-25" edge="1">
                    <mxGeometry relative="1" as="geometry">
                        <mxPoint x="99.99999999999989" y="184.66000000000008" as="sourcePoint"/>
                        <mxPoint x="154.99999999999955" y="290" as="targetPoint"/>
                        <Array as="points">
                            <mxPoint x="216" y="90"/>
                        </Array>
                    </mxGeometry>
                </mxCell>
                <mxCell id="qsqm8T2R4mF9ftBI462v-1" value="" style="line;strokeWidth=4;html=1;perimeter=backbonePerimeter;points=[];outlineConnect=0;fontSize=9;" parent="R3t0cS9KJMK3SXHrxC7m-24" vertex="1">
                    <mxGeometry x="100" y="120" width="30" height="10" as="geometry"/>
                </mxCell>
                <mxCell id="ZXGS0kEtsXICYGnzJw7R-5" value="" style="edgeStyle=none;html=1;fontFamily=Times New Roman;fontSize=9;entryX=0.5;entryY=0;entryDx=0;entryDy=0;" parent="R3t0cS9KJMK3SXHrxC7m-24" source="qsqm8T2R4mF9ftBI462v-1" target="R3t0cS9KJMK3SXHrxC7m-32" edge="1">
                    <mxGeometry relative="1" as="geometry">
                        <mxPoint x="266.0000000000002" y="264" as="sourcePoint"/>
                        <mxPoint x="284.99999999999955" y="422" as="targetPoint"/>
                        <Array as="points">
                            <mxPoint x="120" y="140"/>
                            <mxPoint x="270" y="140"/>
                        </Array>
                    </mxGeometry>
                </mxCell>
                <mxCell id="5F5H-l57dZQpDTvLV7wY-1" value="Memilih tambah akun pengguna" style="rounded=1;whiteSpace=wrap;html=1;fontFamily=Times New Roman;fontSize=10;" vertex="1" parent="R3t0cS9KJMK3SXHrxC7m-24">
                    <mxGeometry x="-93" y="510" width="80" height="40" as="geometry"/>
                </mxCell>
                <mxCell id="5F5H-l57dZQpDTvLV7wY-2" value="&lt;i&gt;Input&lt;/i&gt;&amp;nbsp;data akun pengguna" style="rounded=1;whiteSpace=wrap;html=1;fontFamily=Times New Roman;fontSize=10;" vertex="1" parent="R3t0cS9KJMK3SXHrxC7m-24">
                    <mxGeometry x="-92" y="590" width="80" height="40" as="geometry"/>
                </mxCell>
                <mxCell id="5F5H-l57dZQpDTvLV7wY-3" value="Menampilkan halaman &lt;i&gt;input &lt;/i&gt;data akun pengguna" style="rounded=1;whiteSpace=wrap;html=1;fontFamily=Times New Roman;fontSize=10;" vertex="1" parent="R3t0cS9KJMK3SXHrxC7m-24">
                    <mxGeometry x="28" y="510" width="80" height="40" as="geometry"/>
                </mxCell>
                <mxCell id="5F5H-l57dZQpDTvLV7wY-5" value="Validasi &lt;i&gt;form&lt;/i&gt;&amp;nbsp;data akun pengguna" style="rounded=1;whiteSpace=wrap;html=1;fontFamily=Times New Roman;fontSize=10;" vertex="1" parent="R3t0cS9KJMK3SXHrxC7m-24">
                    <mxGeometry x="28" y="590" width="80" height="40" as="geometry"/>
                </mxCell>
                <mxCell id="5F5H-l57dZQpDTvLV7wY-6" value="&lt;font style=&quot;font-size: 9px;&quot;&gt;Apakah&lt;br style=&quot;border-color: var(--border-color);&quot;&gt;valid?&lt;/font&gt;" style="html=1;whiteSpace=wrap;aspect=fixed;shape=isoRectangle;fontFamily=Times New Roman;fontSize=10;" vertex="1" parent="R3t0cS9KJMK3SXHrxC7m-24">
                    <mxGeometry x="34.670000000000016" y="651" width="66.67" height="40" as="geometry"/>
                </mxCell>
                <mxCell id="5F5H-l57dZQpDTvLV7wY-7" value="" style="endArrow=classic;html=1;fontFamily=Times New Roman;fontSize=10;exitX=1;exitY=0.5;exitDx=0;exitDy=0;exitPerimeter=0;entryX=0.75;entryY=1;entryDx=0;entryDy=0;" edge="1" parent="R3t0cS9KJMK3SXHrxC7m-24" source="5F5H-l57dZQpDTvLV7wY-6" target="R3t0cS9KJMK3SXHrxC7m-25">
                    <mxGeometry relative="1" as="geometry">
                        <mxPoint x="-252.00000000000045" y="510" as="sourcePoint"/>
                        <mxPoint x="148" y="671" as="targetPoint"/>
                        <Array as="points">
                            <mxPoint x="135" y="671"/>
                        </Array>
                    </mxGeometry>
                </mxCell>
                <mxCell id="5F5H-l57dZQpDTvLV7wY-8" value="&lt;font style=&quot;font-size: 9px;&quot;&gt;Ya&lt;/font&gt;" style="edgeLabel;resizable=0;html=1;align=center;verticalAlign=middle;fontFamily=Times New Roman;fontSize=10;" connectable="0" vertex="1" parent="5F5H-l57dZQpDTvLV7wY-7">
                    <mxGeometry relative="1" as="geometry">
                        <mxPoint x="-20" y="262" as="offset"/>
                    </mxGeometry>
                </mxCell>
                <mxCell id="5F5H-l57dZQpDTvLV7wY-9" value="" style="edgeStyle=none;html=1;fontFamily=Times New Roman;fontSize=10;" edge="1" parent="R3t0cS9KJMK3SXHrxC7m-24" source="5F5H-l57dZQpDTvLV7wY-1" target="5F5H-l57dZQpDTvLV7wY-3">
                    <mxGeometry relative="1" as="geometry"/>
                </mxCell>
                <mxCell id="5F5H-l57dZQpDTvLV7wY-10" value="" style="endArrow=classic;html=1;fontFamily=Times New Roman;fontSize=9;entryX=0.5;entryY=1;entryDx=0;entryDy=0;exitX=-0.019;exitY=0.52;exitDx=0;exitDy=0;exitPerimeter=0;" edge="1" parent="R3t0cS9KJMK3SXHrxC7m-24" source="5F5H-l57dZQpDTvLV7wY-6" target="5F5H-l57dZQpDTvLV7wY-2">
                    <mxGeometry relative="1" as="geometry">
                        <mxPoint x="-232.00000000000045" y="510" as="sourcePoint"/>
                        <mxPoint x="-132.00000000000045" y="510" as="targetPoint"/>
                        <Array as="points">
                            <mxPoint x="-52.000000000000455" y="672"/>
                        </Array>
                    </mxGeometry>
                </mxCell>
                <mxCell id="5F5H-l57dZQpDTvLV7wY-11" value="Tidak" style="edgeLabel;resizable=0;html=1;align=center;verticalAlign=middle;fontFamily=Times New Roman;fontSize=9;" connectable="0" vertex="1" parent="5F5H-l57dZQpDTvLV7wY-10">
                    <mxGeometry relative="1" as="geometry">
                        <mxPoint x="40" y="-1" as="offset"/>
                    </mxGeometry>
                </mxCell>
                <mxCell id="5F5H-l57dZQpDTvLV7wY-12" value="" style="edgeStyle=none;html=1;fontFamily=Times New Roman;fontSize=10;entryX=0.5;entryY=0;entryDx=0;entryDy=0;" edge="1" parent="R3t0cS9KJMK3SXHrxC7m-24" source="5F5H-l57dZQpDTvLV7wY-3" target="5F5H-l57dZQpDTvLV7wY-2">
                    <mxGeometry relative="1" as="geometry">
                        <Array as="points">
                            <mxPoint x="67.99999999999955" y="570"/>
                            <mxPoint x="-52.000000000000455" y="570"/>
                        </Array>
                    </mxGeometry>
                </mxCell>
                <mxCell id="5F5H-l57dZQpDTvLV7wY-4" value="" style="edgeStyle=none;html=1;fontFamily=Times New Roman;fontSize=10;" edge="1" parent="R3t0cS9KJMK3SXHrxC7m-24" source="5F5H-l57dZQpDTvLV7wY-5" target="5F5H-l57dZQpDTvLV7wY-6">
                    <mxGeometry relative="1" as="geometry"/>
                </mxCell>
                <mxCell id="5F5H-l57dZQpDTvLV7wY-13" value="" style="edgeStyle=none;html=1;fontFamily=Times New Roman;fontSize=9;" edge="1" parent="R3t0cS9KJMK3SXHrxC7m-24" source="5F5H-l57dZQpDTvLV7wY-2" target="5F5H-l57dZQpDTvLV7wY-5">
                    <mxGeometry relative="1" as="geometry"/>
                </mxCell>
                <mxCell id="R3t0cS9KJMK3SXHrxC7m-38" value="Tidak" style="edgeLabel;resizable=0;html=1;align=center;verticalAlign=middle;fontFamily=Times New Roman;fontSize=9;" parent="1" connectable="0" vertex="1">
                    <mxGeometry x="311.192180435523" y="450.87231178543595" as="geometry"/>
                </mxCell>
                <mxCell id="R3t0cS9KJMK3SXHrxC7m-39" value="Tidak" style="edgeLabel;resizable=0;html=1;align=center;verticalAlign=middle;fontFamily=Times New Roman;fontSize=9;" parent="1" connectable="0" vertex="1">
                    <mxGeometry x="329.3006019929379" y="576.8983263486721" as="geometry">
                        <mxPoint x="-1" as="offset"/>
                    </mxGeometry>
                </mxCell>
                <mxCell id="ZXGS0kEtsXICYGnzJw7R-2" value="Tidak" style="edgeLabel;resizable=0;html=1;align=center;verticalAlign=middle;fontFamily=Times New Roman;fontSize=9;" parent="1" connectable="0" vertex="1">
                    <mxGeometry x="307.12942459798103" y="328.855085140734" as="geometry"/>
                </mxCell>
                <mxCell id="5F5H-l57dZQpDTvLV7wY-20" value="Tidak" style="edgeLabel;resizable=0;html=1;align=center;verticalAlign=middle;fontFamily=Times New Roman;fontSize=9;" connectable="0" vertex="1" parent="1">
                    <mxGeometry x="310" y="610.115540070693" as="geometry"/>
                </mxCell>
            </root>
        </mxGraphModel>
    </diagram>
</mxfile>